<svg id="Layer_1" data-name="Layer 1" xmlns="http://www.w3.org/2000/svg" viewBox="0 0 600 600"><defs><style>.cls-1{fill:#fff;}</style></defs><title>Artboard 3</title><path class="cls-1" d="M411.73,274.9q-17.58,0-28.52,10.25T371.1,313h79.69Q447.27,274.9,411.73,274.9Z"/><path class="cls-1" d="M300,0C134.31,0,0,134.31,0,300S134.31,600,300,600,600,465.69,600,300,465.69,0,300,0Zm61.14,191.69h99.81v24.22H361.14ZM301.28,376.37a59.94,59.94,0,0,1-12.89,20.21,73.9,73.9,0,0,1-19.24,13.87,92.2,92.2,0,0,1-23.64,8.2,131.21,131.21,0,0,1-26.17,2.54H100V175.09H216a150.94,150.94,0,0,1,30.27,2.73A83.2,83.2,0,0,1,271,187.1a43.63,43.63,0,0,1,17.58,18.85q6.15,12.31,6.15,30.08,0,35.36-33.59,51.37,22.27,6.25,33.59,22.46t11.33,39.85A71.51,71.51,0,0,1,301.28,376.37Zm198.34-32.52H371.1q0,21.68,11.23,33.5t32.52,11.82a49.35,49.35,0,0,0,23.83-6.25q11.52-6.25,14.84-17h43.16q-19.53,60-83.4,60-41.8,0-66.51-25.78t-24.71-67.77q0-40.62,25.49-67.48T413.29,238q27,0,47,13.28a81.94,81.94,0,0,1,29.88,35Q500,307.91,500,334.67,500,338,499.62,343.84Z"/><path class="cls-1" d="M233.11,267.38q8.88-7.13,8.89-22.17,0-28.13-37.11-28.12H154.1v57.42H209Q224.22,274.51,233.11,267.38Z"/><path class="cls-1" d="M213.09,311.62h-59v67.77h57.81q40,0,40-32.62Q252,311.62,213.09,311.62Z"/></svg>