<svg xmlns="http://www.w3.org/2000/svg" viewBox="0 0 600 600"><defs><style>.cls-1{fill:#fff;}</style></defs><title>pinterest</title><g id="Icons"><path class="cls-1" d="M300,0C134.31,0,0,134.31,0,300,0,423.21,74.29,529.06,180.51,575.24q-.58-8.37-.59-11.83,0-29.07,6.8-65.27t21-90.89q14.23-54.67,16.44-64.17-10.12-20.54-10.12-53.42,0-26.24,16.44-49.31t41.73-23.07q19.27,0,30,12.8T313,262.48q0,20.85-13.91,60.37T285.19,382q0,19.9,14.22,33t34.46,13.12a67.48,67.48,0,0,0,32.24-7.91,72.61,72.61,0,0,0,24.82-21.49,181.89,181.89,0,0,0,17.7-30,172.57,172.57,0,0,0,12-34.93A343.5,343.5,0,0,0,427,298.67,256.32,256.32,0,0,0,429,267.22q0-54.69-34.62-85.19t-90.24-30.51q-63.24,0-105.58,40.94T156.22,296.3a91.4,91.4,0,0,0,3.95,26.87q3.95,13,8.53,20.55t8.54,14.38q3.94,6.79,3.95,9.64,0,8.86-4.74,23.08T164.75,405q-.63,0-5.37-1a64.62,64.62,0,0,1-28.61-17.7,92.08,92.08,0,0,1-19.28-29.87,194,194,0,0,1-10.28-34.14,169.77,169.77,0,0,1-3.47-33.67,174.56,174.56,0,0,1,11.85-64.33,165.18,165.18,0,0,1,32.72-52.63,223.46,223.46,0,0,1,106.53-63.54A250.67,250.67,0,0,1,312.69,100q49.95,0,92.94,21a175.55,175.55,0,0,1,69.86,61.17q26.85,40.14,26.87,90.72a293.39,293.39,0,0,1-6,59.43,240.3,240.3,0,0,1-19,56,195.05,195.05,0,0,1-31.61,47.26,137.19,137.19,0,0,1-45.83,32.55q-27.19,12.18-59.75,12.17-21.49,0-42.67-10.11t-30.35-27.82q-3.17,12.33-8.85,35.57t-7.43,30q-1.74,6.81-6.48,22.45t-8.22,22.44l-10.11,19.76q-4.22,8.2-8.94,15.82A300.1,300.1,0,0,0,300,600c165.69,0,300-134.31,300-300S465.69,0,300,0Z"/></g></svg>