<svg xmlns="http://www.w3.org/2000/svg" viewBox="0 0 600 600"><defs><style>.cls-1{fill:#fff;}</style></defs><title>leftarrow</title><g id="Icons"><path class="cls-1" d="M300,0C134.31,0,0,134.31,0,300S134.31,600,300,600,600,465.69,600,300,465.69,0,300,0ZM501,317.38q0,14.44-8.86,24.67t-23,10.22h-192L357,432.43a34.23,34.23,0,0,1,0,49.09l-20.44,20.72a33.4,33.4,0,0,1-24.54,10.09,34.91,34.91,0,0,1-24.82-10.09L109.73,324.46a33.35,33.35,0,0,1-10.09-24.53,34.88,34.88,0,0,1,10.09-24.81L287.23,97.89a34.58,34.58,0,0,1,49.36,0L357,118.07a34.86,34.86,0,0,1,0,49.62l-79.89,79.89h192q14.17,0,23,10.22T501,282.47Z"/></g></svg>