<svg xmlns="http://www.w3.org/2000/svg" viewBox="0 0 600 600"><defs><style>.cls-1{fill:#fff;}</style></defs><title>hamburger</title><g id="Icons"><path class="cls-1" d="M300,0C134.31,0,0,134.31,0,300S134.31,600,300,600,600,465.69,600,300,465.69,0,300,0ZM468,425.83a14.17,14.17,0,0,1-14,14H146.82a14.16,14.16,0,0,1-14-14V397.89a14.14,14.14,0,0,1,14-14H454a14.16,14.16,0,0,1,14,14Zm0-111.72a14.19,14.19,0,0,1-14,14H146.82a14.17,14.17,0,0,1-14-14V286.18a14.14,14.14,0,0,1,14-14H454a14.16,14.16,0,0,1,14,14Zm0-111.72a14.17,14.17,0,0,1-14,14H146.82a14.16,14.16,0,0,1-14-14V174.47a14.16,14.16,0,0,1,14-14H454a14.17,14.17,0,0,1,14,14Z"/></g></svg>