<svg xmlns="http://www.w3.org/2000/svg" viewBox="0 0 600 600"><defs><style>.cls-1{fill:#fff;}</style></defs><title>linkedin</title><g id="Icons"><path class="cls-1" d="M300,0C134.31,0,0,134.31,0,300S134.31,600,300,600,600,465.69,600,300,465.69,0,300,0ZM216.1,447.48H149.68V248H216.1ZM210.16,211q-10.36,9.85-27.27,9.86h-.4q-16.52,0-26.57-9.86t-10.06-24.56q0-14.9,10.36-24.66T183.29,152q16.71,0,26.77,9.75t10.27,24.66A31.91,31.91,0,0,1,210.16,211ZM455,447.48H388.78V340.81q0-21.13-8.15-33.11t-25.46-12q-12.68,0-21.23,6.94a42.79,42.79,0,0,0-12.78,17.21q-2.22,6-2.21,16.3v111.3H252.73q.41-80.31.4-130.22t-.2-59.57l-.2-9.66H319v28.36a86.78,86.78,0,0,1,7.84-10.65,85.89,85.89,0,0,1,11.38-10.47,52.29,52.29,0,0,1,17.51-8.75,79.7,79.7,0,0,1,23-3.12q34.41,0,55.35,22.84T455,333.16Z"/></g></svg>