<svg xmlns="http://www.w3.org/2000/svg" viewBox="0 0 600 600"><defs><style>.cls-1{fill:#fff;}</style></defs><title>twitter</title><g id="Icons"><path class="cls-1" d="M300,0C134.31,0,0,134.31,0,300S134.31,600,300,600,600,465.69,600,300,465.69,0,300,0ZM450.64,243.28c.15,2.09.22,5.21.22,9.38a205,205,0,0,1-8.49,58,209.45,209.45,0,0,1-25.81,55.53,218.23,218.23,0,0,1-41.22,47q-23.91,20.44-57.65,32.62A210.93,210.93,0,0,1,245.52,458Q185,458,134.7,425.6a153.33,153.33,0,0,0,17.43.9q50.26,0,89.59-30.84a72.31,72.31,0,0,1-67.47-50.05,90.62,90.62,0,0,0,13.63,1.12,74.64,74.64,0,0,0,19-2.46,71,71,0,0,1-41.45-24.91A69.74,69.74,0,0,1,149,273.44v-.89a71.63,71.63,0,0,0,32.62,9.16A72.13,72.13,0,0,1,158.16,256a72.29,72.29,0,0,1,1.12-70.83,204.38,204.38,0,0,0,65.8,53.29,201,201,0,0,0,83,22.24,80.33,80.33,0,0,1-1.78-16.54q0-29.94,21.11-51.06T378.47,172q31.27,0,52.73,22.79A141.6,141.6,0,0,0,477,177.36q-8.26,25.71-31.72,39.77A143.38,143.38,0,0,0,486.83,206,151.24,151.24,0,0,1,450.64,243.28Z"/></g></svg>