<svg xmlns="http://www.w3.org/2000/svg" viewBox="0 0 600 600"><defs><style>.cls-1{fill:#fff;}</style></defs><title>downarrow</title><g id="Icons"><path class="cls-1" d="M300,0C134.31,0,0,134.31,0,300S134.31,600,300,600,600,465.69,600,300,465.69,0,300,0ZM501.73,313,324.62,490.11q-9.53,10.06-24.49,10.07a33.63,33.63,0,0,1-24.75-10.07L98.26,313A34.86,34.86,0,0,1,88.2,288.24q0-13.87,10.06-24.49l20.41-20.4a34.8,34.8,0,0,1,49.51,0l79.72,79.71V131.53q0-14.15,10.2-23t24.62-8.84h34.82q14.43,0,24.63,8.84t10.2,23V323.06l80-79.71a34.16,34.16,0,0,1,49,0l20.4,20.4a34.49,34.49,0,0,1,0,49.25Z"/></g></svg>