<svg xmlns="http://www.w3.org/2000/svg" viewBox="0 0 600 600"><defs><style>.\34 d7c9051-7e58-4005-ba1c-a5efcfc1ec63{fill:#fff;}</style></defs><title>dribbble</title><g id="a0347061-cd40-4bf0-bda0-75fdf0b89533" data-name="Icons"><path class="4d7c9051-7e58-4005-ba1c-a5efcfc1ec63" d="M300,0C134.31,0,0,134.31,0,300S134.31,600,300,600,600,465.69,600,300,465.69,0,300,0ZM484.54,191.93q28.4,48.67,28.4,106.3t-28.4,106.3a210.69,210.69,0,0,1-77.07,77.07Q358.81,510,301.17,510T194.88,481.6a210.69,210.69,0,0,1-77.07-77.07q-28.41-48.66-28.4-106.3t28.4-106.3a210.74,210.74,0,0,1,77.07-77.06q48.66-28.41,106.29-28.41t106.3,28.41A210.74,210.74,0,0,1,484.54,191.93ZM320.75,297.4q-5.79-13.5-14.61-30.6-85.75,25.63-185.58,25.64a45.56,45.56,0,0,0-.27,5.79,177.46,177.46,0,0,0,12.13,65.22A181.2,181.2,0,0,0,166.61,419a231.31,231.31,0,0,1,34.06-45.91q20.27-21.37,39.29-34.33t36-22.34q17-9.37,27.44-13.23l10.2-3.59c.74-.18,1.93-.5,3.59-1A19.78,19.78,0,0,0,320.75,297.4ZM291.25,239Q258.16,180.23,224,134.72A181.53,181.53,0,0,0,124.15,261,654.22,654.22,0,0,0,291.25,239Zm80.52,225.83q-11.58-66.45-38.61-137.32h-.55l-.55.28q-4.41,1.65-11.86,4.55T292.35,345.8a353.75,353.75,0,0,0-37.77,22.61q-17.39,12-36.13,31.57t-28.4,40.81l-4.13-3q50.73,41.36,115.25,41.36A180.87,180.87,0,0,0,371.77,464.78ZM257.89,122.59a.8.8,0,0,0-.56.27A.8.8,0,0,1,257.89,122.59Zm162.68,40q-51-45.23-119.4-45.22a181.91,181.91,0,0,0-42.73,5.24q36.12,46.88,67.83,105.33a257,257,0,0,0,35.85-16.68,242.5,242.5,0,0,0,26.6-17,177.6,177.6,0,0,0,18.06-15.72q8.28-8.26,10.35-11.17C418.5,165.46,419.65,163.86,420.57,162.57ZM482.06,296.3q-.82-64-41.08-113l-.28.27q-2.47,3.31-5.24,6.76a159.08,159.08,0,0,1-12,12.27,228,228,0,0,1-19.58,16.68,278.36,278.36,0,0,1-27.58,17.92,280.13,280.13,0,0,1-36.25,17.79q6.88,14.63,12.13,26.2.54,1.38,1.79,4.68a32,32,0,0,0,2.07,4.69q9.93-1.38,20.54-1.93t20.27-.55q9.64,0,19,.41t17.65,1.11q8.28.69,15.58,1.51t13.24,1.79l10.06,1.66q4.14.69,6.89,1.24Zm-2.2,30.61q-57.92-16.55-112.78-8a777.73,777.73,0,0,1,35.29,129.32,180.47,180.47,0,0,0,51-52.25A178.27,178.27,0,0,0,479.86,326.91Z"/></g></svg>