<svg id="Layer_1" data-name="Layer 1" xmlns="http://www.w3.org/2000/svg" viewBox="0 0 600 600"><defs><style>.cls-1{fill:#fff;}</style></defs><title>Artboard 7</title><path class="cls-1" d="M300,0C134.31,0,0,134.31,0,300S134.31,600,300,600,600,465.69,600,300,465.69,0,300,0ZM459.33,219q.26,3.56.25,10.67a233,233,0,0,1-9.65,65.89,238.09,238.09,0,0,1-29.33,63.1,248.13,248.13,0,0,1-46.85,53.45q-27.17,23.24-65.52,37.07t-82,13.84q-68.82,0-126-36.82a174.36,174.36,0,0,0,19.81,1q57.14,0,101.83-35a82.19,82.19,0,0,1-76.69-56.88,103.76,103.76,0,0,0,15.49,1.27,84.7,84.7,0,0,0,21.58-2.8,80.69,80.69,0,0,1-47.1-28.31Q116.53,283,116.53,253.25v-1a81.3,81.3,0,0,0,37.07,10.41,81.93,81.93,0,0,1-26.66-29.2A82.22,82.22,0,0,1,128.21,153,232.41,232.41,0,0,0,203,213.51a228.39,228.39,0,0,0,94.33,25.27,91.14,91.14,0,0,1-2-18.79q0-34,24-58t58-24q35.55,0,59.93,25.9a160.91,160.91,0,0,0,52.05-19.81q-9.39,29.2-36.06,45.2a163.17,163.17,0,0,0,47.23-12.7A171.9,171.9,0,0,1,459.33,219Z"/></svg>