<svg xmlns="http://www.w3.org/2000/svg" viewBox="0 0 600 600"><defs><style>.cls-1{fill:#fff;}</style></defs><title>email_2</title><g id="Icons"><path class="cls-1" d="M451,189.89q-.5-.78-1.08-1.77a3.64,3.64,0,0,0-1.78-1.48,7.14,7.14,0,0,0-2.77-.49H154.61a6.39,6.39,0,0,0-6.32,6.32q0,33.18,29,56.1,38.11,30,79.21,62.62l6.91,5.83c3.82,3.23,6.85,5.69,9.09,7.41s5.17,3.79,8.79,6.22a53.27,53.27,0,0,0,10,5.44,23.49,23.49,0,0,0,8.49,1.77h.4a23.49,23.49,0,0,0,8.49-1.77,53.58,53.58,0,0,0,10-5.44q5.43-3.64,8.79-6.22c2.24-1.72,5.26-4.18,9.09-7.41s6.12-5.17,6.91-5.83q41.09-32.6,79.21-62.62,10.68-8.49,19.86-22.82t9.18-26v-4.84c0-.58,0-1.44-.1-2.56A5.42,5.42,0,0,0,451,189.89Z"/><path class="cls-1" d="M438.08,268.71q-52.93,40.71-84.15,66.78-10.08,8.49-16.4,13.23a91.48,91.48,0,0,1-17.08,9.59q-10.77,4.83-20.25,4.84h-.4q-9.48,0-20.25-4.84a91.15,91.15,0,0,1-17.08-9.59q-6.33-4.74-16.4-13.23-31.22-26.07-84.15-66.78a114,114,0,0,1-13.63-13V407.4a6.4,6.4,0,0,0,6.32,6.32H445.39a6.4,6.4,0,0,0,6.32-6.32V255.68A114,114,0,0,1,438.08,268.71Z"/><path class="cls-1" d="M300,0C134.31,0,0,134.31,0,300S134.31,600,300,600,600,465.69,600,300,465.69,0,300,0ZM477,407.4A31.68,31.68,0,0,1,445.39,439H154.61A31.68,31.68,0,0,1,123,407.4V192.47a31.7,31.7,0,0,1,31.61-31.61H445.39A31.7,31.7,0,0,1,477,192.47Z"/></g></svg>