<svg xmlns="http://www.w3.org/2000/svg" viewBox="0 0 600 600"><defs><style>.cls-1{fill:#fff;}</style></defs><title>behance</title><g id="Icons"><path class="cls-1" d="M221.31,310.47H167.72V372h52.53q36.38,0,36.37-29.63Q256.62,310.46,221.31,310.47Z"/><path class="cls-1" d="M239.5,270.27q8.07-6.48,8.07-20.14,0-25.56-33.71-25.56H167.72v52.18h49.86Q231.43,276.75,239.5,270.27Z"/><path class="cls-1" d="M300,0C134.31,0,0,134.31,0,300S134.31,600,300,600,600,465.69,600,300,465.69,0,300,0Zm55.83,201.5h90.68v22H355.83Zm-54.4,167.79a54.37,54.37,0,0,1-11.71,18.37,67.14,67.14,0,0,1-17.48,12.6,83.67,83.67,0,0,1-21.47,7.45A119.08,119.08,0,0,1,227,410H118.56V186.42H224a137.79,137.79,0,0,1,27.51,2.48,75.74,75.74,0,0,1,22.45,8.43,39.67,39.67,0,0,1,16,17.13q5.6,11.17,5.59,27.33,0,32.11-30.52,46.67,20.22,5.69,30.52,20.41t10.29,36.2A64.86,64.86,0,0,1,301.43,369.29Zm180.22-29.55H364.88q0,19.71,10.2,30.44t29.55,10.74a44.93,44.93,0,0,0,21.65-5.68q10.47-5.69,13.48-15.44H479q-17.75,54.48-75.77,54.48-38,0-60.43-23.43t-22.45-61.57q0-36.91,23.16-61.32t59.72-24.4q24.48,0,42.68,12.07A74.53,74.53,0,0,1,473,287.39q9,19.71,9,44C482,333.42,481.88,336.19,481.65,339.74Z"/><path class="cls-1" d="M401.79,277.1q-16,0-25.91,9.32t-11,25.29h72.4Q434.09,277.11,401.79,277.1Z"/></g></svg>