<svg xmlns="http://www.w3.org/2000/svg" viewBox="0 0 600 600"><defs><style>.cls-1{fill:#fff;}</style></defs><title>instagram</title><g id="Icons"><path class="cls-1" d="M300.43,239.62a60.55,60.55,0,0,0-60.53,60.52,60.57,60.57,0,0,0,60.53,60.53A60.55,60.55,0,0,0,361,300.14a60.53,60.53,0,0,0-60.52-60.52Z"/><path class="cls-1" d="M449.49,257.12q-.12-8.52-.71-22.82A187.2,187.2,0,0,0,446.42,210a94.86,94.86,0,0,0-4.37-16.9,61.93,61.93,0,0,0-34.52-34.52,95.15,95.15,0,0,0-16.91-4.38,187,187,0,0,0-24.35-2.36q-14.31-.58-22.81-.71t-24.95,0l-18.08.12-18.09-.12q-16.43-.12-24.94,0t-22.81.71a187.19,187.19,0,0,0-24.36,2.36,94.79,94.79,0,0,0-16.9,4.38,61.85,61.85,0,0,0-34.52,34.52,94.86,94.86,0,0,0-4.37,16.9,188.78,188.78,0,0,0-2.37,24.35q-.58,14.31-.71,22.82t0,24.94q.12,16.43.12,18.08t-.12,18.09q-.12,16.44,0,24.94t.71,22.82a188.78,188.78,0,0,0,2.37,24.35,94.86,94.86,0,0,0,4.37,16.9,61.85,61.85,0,0,0,34.52,34.52,94,94,0,0,0,16.9,4.37,185.28,185.28,0,0,0,24.36,2.37q14.29.58,22.81.71t24.94,0l18.09-.12,18.08.12q16.44.12,24.95,0t22.81-.71a185.11,185.11,0,0,0,24.35-2.37,94.36,94.36,0,0,0,16.91-4.37,61.93,61.93,0,0,0,34.52-34.52,94.86,94.86,0,0,0,4.37-16.9A187.2,187.2,0,0,0,448.78,366q.59-14.31.71-22.82t0-24.94q-.12-16.43-.12-18.09t.12-18.08Q449.61,265.62,449.49,257.12Zm-83.1,109q-27.19,27.19-66,27.19t-66-27.19q-27.19-27.18-27.19-66t27.19-66q27.18-27.18,66-27.19t66,27.19q27.18,27.19,27.19,66T366.39,366.1Zm46.34-147.52a21.7,21.7,0,1,1,6.38-15.37A21,21,0,0,1,412.73,218.58Z"/><path class="cls-1" d="M300,0C134.31,0,0,134.31,0,300S134.31,600,300,600,600,465.69,600,300,465.69,0,300,0ZM480.82,375.09q-2.37,49.17-29.32,76.13t-76.13,29.31q-20.81,1.19-74.94,1.18t-75-1.18q-49.17-2.37-76.12-29.31T120,375.09q-1.19-20.8-1.18-74.95T120,225.2q2.35-49.17,29.32-76.13t76.12-29.31q20.81-1.19,75-1.19t74.94,1.19q49.17,2.35,76.13,29.31t29.32,76.13Q482,246,482,300.14T480.82,375.09Z"/></g></svg>