<svg id="Layer_1" data-name="Layer 1" xmlns="http://www.w3.org/2000/svg" viewBox="0 0 600 600"><defs><style>.cls-1{fill:#fff;}</style></defs><title>Artboard 1</title><path class="cls-1" d="M300,0C134.31,0,0,134.31,0,300S134.31,600,300,600,600,465.69,600,300,465.69,0,300,0ZM497,419.12a35.87,35.87,0,0,1-35.77,35.77H132.12a35.87,35.87,0,0,1-35.77-35.77V241.6A118.27,118.27,0,0,0,118.92,261q80.94,55,111.12,77.14,12.75,9.39,20.68,14.65a127.48,127.48,0,0,0,21.13,10.73Q285,369,296.45,369h.45q11.4,0,24.6-5.48a127.48,127.48,0,0,0,21.13-10.73q7.93-5.25,20.68-14.65,38-27.5,111.34-77.14A123.2,123.2,0,0,0,497,241.6ZM486,209.63a106.45,106.45,0,0,1-27.28,27.5q-84.07,58.36-104.64,72.67-2.24,1.56-9.5,6.82t-12.07,8.5q-4.8,3.24-11.62,7.27a67.75,67.75,0,0,1-12.86,6,35.5,35.5,0,0,1-11.18,2h-.45a35.48,35.48,0,0,1-11.18-2,67.62,67.62,0,0,1-12.86-6q-6.82-4-11.62-7.27t-12.07-8.5q-7.27-5.25-9.5-6.82Q218.87,295.48,180.63,269T134.8,237.13q-13.87-9.39-26.16-25.82t-12.3-30.52q0-17.44,9.28-29.06t26.5-11.63H461.23A36.07,36.07,0,0,1,497,175.87Q497,193.53,486,209.63Z"/></svg>