<svg xmlns="http://www.w3.org/2000/svg" viewBox="0 0 600 600"><defs><style>.b68a2d85-bfab-4693-b986-523a85d89f3f{fill:#74ccd1;}</style></defs><title>uparrow</title><g id="51eeeb88-9ea2-4223-b2fa-bb14e4628286" data-name="Icons"><path class="b68a2d85-bfab-4693-b986-523a85d89f3f" d="M600,300C600,134.31,465.69,0,300,0S0,134.31,0,300,134.31,600,300,600,600,465.69,600,300ZM282.62,501q-14.44,0-24.67-8.86t-10.22-23v-192L167.57,357A32.44,32.44,0,0,1,143,367.4,32.4,32.4,0,0,1,118.48,357L97.76,336.59a33.4,33.4,0,0,1-10.09-24.54,34.91,34.91,0,0,1,10.09-24.82l177.78-177.5a33.35,33.35,0,0,1,24.53-10.09,34.88,34.88,0,0,1,24.81,10.09l177.23,177.5a34.58,34.58,0,0,1,0,49.36L481.93,357a34.86,34.86,0,0,1-49.62,0l-79.89-79.89v192q0,14.17-10.22,23T317.53,501Z"/></g></svg>