<svg xmlns="http://www.w3.org/2000/svg" viewBox="0 0 600 600"><defs><style>.cls-1{fill:#fff;}</style></defs><title>email</title><g id="Icons"><path class="cls-1" d="M300,0C134.31,0,0,134.31,0,300S134.31,600,300,600,600,465.69,600,300,465.69,0,300,0ZM477,408.4A31.68,31.68,0,0,1,445.39,440H154.61A31.68,31.68,0,0,1,123,408.4V251.54A104.43,104.43,0,0,0,143,268.73q71.51,48.6,98.18,68.15,11.26,8.31,18.27,12.94a112.94,112.94,0,0,0,18.67,9.49q11.65,4.83,21.73,4.84h.4q10.07,0,21.73-4.84a112.94,112.94,0,0,0,18.67-9.49q7-4.63,18.27-12.94,33.58-24.28,98.37-68.15A108.62,108.62,0,0,0,477,251.54Zm-9.68-185.11a93.72,93.72,0,0,1-24.1,24.3q-74.28,51.57-92.45,64.2-2,1.4-8.4,6t-10.66,7.51q-4.26,2.87-10.28,6.42a60.42,60.42,0,0,1-11.35,5.34,31.55,31.55,0,0,1-9.88,1.77h-.4a31.55,31.55,0,0,1-9.88-1.77,60.13,60.13,0,0,1-11.35-5.34q-6-3.56-10.28-6.42t-10.66-7.51q-6.42-4.63-8.4-6-18-12.63-51.76-36.05T157,247.59q-12.25-8.29-23.11-22.82t-10.87-27q0-15.41,8.2-25.68t23.41-10.27H445.39A31.88,31.88,0,0,1,477,193.47Q477,209.07,467.32,223.29Z"/></g></svg>