<svg id="Layer_1" data-name="Layer 1" xmlns="http://www.w3.org/2000/svg" viewBox="0 0 600 600"><defs><style>.cls-1{fill:#fff;}</style></defs><title>Artboard 8</title><path class="cls-1" d="M300,0C134.31,0,0,134.31,0,300S134.31,600,300,600,600,465.69,600,300,465.69,0,300,0ZM190.21,491.71H104.09V233.07h86.13Zm-7.7-306.66q-13.45,12.79-35.36,12.79h-.52q-21.41,0-34.45-12.79t-13-31.84q0-19.31,13.44-32t35.1-12.66q21.66,0,34.71,12.66t13.31,32Q195.95,172.27,182.51,185.05ZM500,491.71H414.14V353.39q0-27.4-10.57-42.93t-33-15.53q-16.44,0-27.54,9a55.47,55.47,0,0,0-16.57,22.32q-2.87,7.83-2.87,21.14V491.71H237.71q.52-104.13.52-168.86T238,245.6l-.26-12.53h85.86v36.76a97.2,97.2,0,0,1,24.92-27.37,68,68,0,0,1,22.7-11.35,103.61,103.61,0,0,1,29.88-4q44.63,0,71.78,29.62T500,343.47Z"/></svg>