<svg id="Layer_1" data-name="Layer 1" xmlns="http://www.w3.org/2000/svg" viewBox="0 0 600 600"><defs><style>.cls-1{fill:#fff;}</style></defs><title>Artboard 5</title><path class="cls-1" d="M300,0C134.31,0,0,134.31,0,300S134.31,600,300,600,600,465.69,600,300,465.69,0,300,0ZM449.24,276.64a182.63,182.63,0,0,1-14.42,42.54,148.29,148.29,0,0,1-24,35.93,104.19,104.19,0,0,1-34.84,24.75q-20.67,9.26-45.42,9.25a74.59,74.59,0,0,1-32.45-7.69Q282,373.73,275,360.27q-2.41,9.37-6.73,27t-5.65,22.83q-1.33,5.17-4.93,17.07t-6.24,17.06l-7.69,15a170.57,170.57,0,0,1-11.06,18.63q-6,8.77-14.9,20.79l-3.36,1.2-2.17-2.4q-3.6-37.73-3.6-45.18,0-22.11,5.17-49.63t16-69.1Q240.64,292,242.32,284.8q-7.69-15.62-7.69-40.61,0-19.95,12.49-37.49t31.72-17.54q14.66,0,22.83,9.73t8.17,24.63q0,15.86-10.57,45.9t-10.57,44.94q0,15.14,10.81,25.11a37.25,37.25,0,0,0,26.2,10,51.35,51.35,0,0,0,24.51-6,55.2,55.2,0,0,0,18.87-16.34,138.23,138.23,0,0,0,13.46-22.83,131.54,131.54,0,0,0,9.13-26.55A261.55,261.55,0,0,0,396.49,251a195,195,0,0,0,1.56-23.91q0-41.57-26.31-64.77t-68.62-23.19q-48.07,0-80.26,31.12t-32.21,78.94a69.56,69.56,0,0,0,3,20.43,70.28,70.28,0,0,0,6.49,15.62q3.48,5.77,6.48,10.93t3,7.33q0,6.73-3.6,17.54t-8.9,10.81q-.48,0-4.08-.72a49.11,49.11,0,0,1-21.75-13.46A70,70,0,0,1,156.65,295a147.48,147.48,0,0,1-7.81-26,129,129,0,0,1-2.65-25.6,132.57,132.57,0,0,1,9-48.91,125.5,125.5,0,0,1,24.87-40,169.82,169.82,0,0,1,81-48.31A190.5,190.5,0,0,1,309.61,100a158.67,158.67,0,0,1,70.66,16,133.46,133.46,0,0,1,53.11,46.5q20.42,30.52,20.43,69A223,223,0,0,1,449.24,276.64Z"/></svg>