<svg id="Layer_1" data-name="Layer 1" xmlns="http://www.w3.org/2000/svg" viewBox="0 0 600 600"><defs><style>.cls-1{fill:#fff;}</style></defs><title>Artboard 4</title><path class="cls-1" d="M464.23,253.14q-.13-9.37-.78-25.11a205.86,205.86,0,0,0-2.6-26.79,104.1,104.1,0,0,0-4.81-18.6,68.09,68.09,0,0,0-38-38,104.61,104.61,0,0,0-18.6-4.81,207,207,0,0,0-26.8-2.6q-15.75-.64-25.1-.78t-27.45,0l-19.9.13-19.91-.13q-18.08-.13-27.44,0t-25.11.78a206.79,206.79,0,0,0-26.79,2.6,104.56,104.56,0,0,0-18.6,4.81,68.09,68.09,0,0,0-38,38,104.07,104.07,0,0,0-4.81,18.6,205,205,0,0,0-2.6,26.79q-.66,15.75-.78,25.11t0,27.44q.13,18.09.13,19.91t-.13,19.9q-.14,18.08,0,27.45t.78,25.1a205.21,205.21,0,0,0,2.6,26.8,104.13,104.13,0,0,0,4.81,18.6,68.09,68.09,0,0,0,38,38,103.65,103.65,0,0,0,18.6,4.81,205.84,205.84,0,0,0,26.79,2.6q15.74.65,25.11.78t27.44,0l19.91-.13,19.9.13q18.08.13,27.45,0t25.1-.78a206,206,0,0,0,26.8-2.6,103.7,103.7,0,0,0,18.6-4.81,68.09,68.09,0,0,0,38-38,104.15,104.15,0,0,0,4.81-18.6,206,206,0,0,0,2.6-26.8q.64-15.74.78-25.1t0-27.45q-.13-18.08-.13-19.9t.13-19.91Q464.35,262.5,464.23,253.14ZM372.78,373.07Q342.86,403,300.19,403t-72.59-29.92q-29.92-29.91-29.92-72.58t29.92-72.59Q257.52,198,300.19,198t72.59,29.92q29.91,29.92,29.92,72.59T372.78,373.07Zm51-162.34a23.88,23.88,0,1,1,7-16.91A23.06,23.06,0,0,1,423.78,210.72Z"/><path class="cls-1" d="M300.19,233.88q-27.58,0-47.09,19.51t-19.51,47.09q0,27.58,19.51,47.09t47.09,19.51q27.57,0,47.09-19.51t19.51-47.09q0-27.58-19.51-47.09T300.19,233.88Z"/><path class="cls-1" d="M300,0C134.31,0,0,134.31,0,300S134.31,600,300,600,600,465.69,600,300,465.69,0,300,0ZM498.7,383q-2.6,54.12-32.26,83.77T382.67,499q-22.89,1.29-82.47,1.3T217.72,499q-54.11-2.6-83.77-32.26T101.69,383q-1.31-22.89-1.3-82.47t1.3-82.48q2.6-54.11,32.26-83.77T217.72,102q22.89-1.3,82.48-1.3t82.47,1.3q54.11,2.6,83.77,32.26T498.7,218q1.29,22.9,1.3,82.48T498.7,383Z"/></svg>