<svg xmlns="http://www.w3.org/2000/svg" viewBox="0 0 600 600"><defs><style>.cls-1{fill:#fff;}</style></defs><title>rightarrow</title><g id="Icons"><path class="cls-1" d="M300,0C134.31,0,0,134.31,0,300S134.31,600,300,600,600,465.69,600,300,465.69,0,300,0ZM491.31,324.7,314.2,501.81a34.88,34.88,0,0,1-24.76,10.07q-13.87,0-24.49-10.07l-20.4-20.4a34.81,34.81,0,0,1,0-49.52l79.71-79.72H132.73q-14.16,0-23-10.2t-8.84-24.62V282.53q0-14.41,8.84-24.63t23-10.2H324.26l-79.71-80a32.31,32.31,0,0,1-10.34-24.49,32.28,32.28,0,0,1,10.34-24.48L265,98.34a34.49,34.49,0,0,1,49.25,0L491.31,275.45q10.06,9.54,10.06,24.49A33.66,33.66,0,0,1,491.31,324.7Z"/></g></svg>