<svg xmlns="http://www.w3.org/2000/svg" viewBox="0 0 600 600"><defs><style>.cls-1{fill:#fff;}</style></defs><title>checkmark</title><g id="Icons"><path class="cls-1" d="M300,0C134.31,0,0,134.31,0,300S134.31,600,300,600,600,465.69,600,300,465.69,0,300,0ZM483.14,228l-177.5,177.5L272.3,438.8a23.68,23.68,0,0,1-33.34,0l-33.35-33.34-88.75-88.75a23.7,23.7,0,0,1,0-33.35L150.21,250a23.68,23.68,0,0,1,33.34,0l72.08,72.33L416.45,161.27a23.68,23.68,0,0,1,33.34,0l33.35,33.35a23.68,23.68,0,0,1,0,33.34Z"/></g></svg>