<svg id="Layer_1" data-name="Layer 1" xmlns="http://www.w3.org/2000/svg" viewBox="0 0 551.97 191.99"><defs><style>.cls-1{fill:#fff;}.cls-2{fill:#465151;}</style></defs><title>Expanded White Logo</title><path class="cls-1" d="M87.11,30.73c-9,15.93-11.21,41.71-14.45,66.15C91,94.45,103.31,73.66,103.31,53.54c0-19.84-12-39.28-42-39.28-30.91,0-45.22,23.49-45.22,43.6,0,15.25,8.24,28.62,23.49,28.62a25.08,25.08,0,0,0,5.67-.67L47.42,96.2a41.43,41.43,0,0,1-8.78.95C18,97.15,5.17,80.95,5.17,60.56c0-25,18.22-53.05,57.78-53.05,37,0,52.65,22.81,52.65,46.17,0,22.14-14.71,45.49-37.39,49.41,20.65,15.12,18.76,73.3,43.47,73.3,8.5,0,12.42-4.72,15.52-12.55l10.4,3.78c-7,13.36-15.52,17-26.59,17-34.56,0-37.39-59-49.95-76.41-4.46,27.81-12.15,51.3-35.64,51.3-15.66,0-24.3-9-24.3-22.81,0-10.94,7.56-21.73,21.19-22.27V125.5c-7,.81-11.47,7.56-11.47,13.77,0,8.77,6.62,13.63,14.17,13.63,34.69,0,17.41-85.18,39.82-126.36Z"/><path class="cls-1" d="M142.65,68.91h9.23c-3.9,17.29-6.37,31.33-8.19,44.2a17.27,17.27,0,0,0-.26,3.38c0,2,.39,2.86,1,2.86,1.43,0,6.89-6.24,13.13-22.36.78,0,3.64,1,3.64,1.82-7.93,20.8-14.3,29.9-20.28,29.9-4.16,0-6.5-3.77-6.5-12.74v-1.43c-3,7.93-7.54,14.82-15.08,14.82-6.37,0-9-7-9-16.51,0-18.33,10-45.37,22.36-45.37,4.81,0,7.54,2.86,8.45,8.71Zm-21.32,42.64c0,4,.78,6.76,2.73,6.76,6,0,13.39-21.19,13.39-33.28,0-4.81-1.17-8.19-4-8.19C128,76.84,121.33,99.72,121.33,111.55Z"/><path class="cls-1" d="M178.14,94.13c2.6-4.42,4.29-10.14,4.29-14,0-2.73-.78-4.55-2.6-4.55-6.76,0-12.61,15.47-12.61,27.82,0,8.19,2.6,15,9.23,15,6.24,0,13.26-7,19-21.32.78,0,3.64,1,3.64,1.82-3.9,10.4-13.91,30.55-27.69,30.55-10.14,0-14.56-10.4-14.56-22.75,0-17.68,9.1-39.13,23.53-39.13,7.41,0,10.4,6,10.4,13.52a43.52,43.52,0,0,1-4.29,17.55Z"/><path class="cls-1" d="M190.36,128.06a31.7,31.7,0,0,1-.13-3.51c0-10.27,4-20.93,4-20.93,4.55-27.56,10.27-59.15,15.6-71.24,2.47-5.59,7-8.06,10.92-8.06,6.5,0,9,3.25,9,8.19,0,10.53-11.18,28.34-19.24,38.22-.39,2.34-.91,4.68-1.43,7.15,4.29-6.5,9.62-10.53,15.21-10.53,4.55,0,7.54,3,7.54,9.23,0,12.09-8.45,27.56-8.45,38.22,0,3.77,1.43,4.42,2.6,4.42,3.38,0,7.67-7.28,13.39-22.23.78,0,3.64,1,3.64,1.82-5.72,14.82-11.57,29.9-22.23,29.9-4.55,0-8.84-3.64-8.84-11.57,0-14,8.45-28.47,8.45-37.83,0-1.43-.65-2.6-2.08-2.6-5.59,0-12.61,12.61-17.42,51.35Zm31.07-95.29c-2.08,0-3.77,5.46-8.45,27,3.64-7,9.62-18.59,9.62-25.22C222.6,33.42,222.08,32.77,221.43,32.77Z"/><path class="cls-1" d="M276.55,97c.78,0,3.64,1,3.64,1.82-6.5,17-13,30.55-25.74,30.55-11.31,0-16-10.4-16-22.62,0-17.68,9.75-39.26,24.31-39.26,6.5,0,9.75,4.68,9.75,10.66,0,9.23-7.8,21.71-23.14,24.18v1.95c0,7.8,2.21,14,8.19,14C265.24,118.31,271.61,110.25,276.55,97Zm-26.78.39c9.75-4.81,14-13.78,14-18.59,0-1.95-.78-3.25-2.08-3.25C256.4,75.54,251.33,86.59,249.77,97.38Z"/><path class="cls-1" d="M305.93,97c.65,0,3.12,1,3.12,1.69v.13c-7.67,20.8-13.65,30.55-22.1,30.55-7.8,0-10.92-7.67-10.92-21.19,0-9.49,1.56-22,4.16-36.79,5.85-32.63,14-47.32,21.58-47.32,6.76,0,8.71,5.46,8.71,12.09,0,7.67-2.6,16.9-3.9,20.93a111.69,111.69,0,0,1-19.24,36.14,133.72,133.72,0,0,0-1,14.82c0,8.71,2,11.44,4.94,11.44C295.4,119.48,300.34,111.42,305.93,97Zm-2.47-64.22c-3.51,0-11.18,28.08-15,52.26,6.5-11.83,16.12-33.54,16.25-49.4C304.76,33.81,304.11,32.77,303.46,32.77Z"/><path class="cls-1" d="M359.62,33.68c17.94,0,26.52,11.7,26.52,25,0,16.12-12.74,34.71-36.4,37.31-1.82,10.14-3.9,20.67-6.11,32.11H332.19C334,117.14,336,106.48,338,95.82a35.59,35.59,0,0,1-10.66-3.25l4.29-7.8a21.14,21.14,0,0,0,7.67,4.16c3-16,6-31.33,8.58-46.15a29.9,29.9,0,0,0-9.88,9.1l-6.89-5.59C338.69,38.49,348,33.68,359.62,33.68ZM351,89.19c15.34-3,23.79-17.29,23.79-29.77,0-11.18-4.16-19.11-15.21-19C356.89,56.3,354.16,72,351,89.19Z"/><path class="cls-1" d="M415,97c.78,0,3.64,1,3.64,1.82-6.5,17-13,30.55-25.74,30.55-11.31,0-16-10.4-16-22.62,0-17.68,9.75-39.26,24.31-39.26,6.5,0,9.75,4.68,9.75,10.66,0,9.23-7.8,21.71-23.14,24.18v1.95c0,7.8,2.21,14,8.19,14C403.69,118.31,410.06,110.25,415,97Zm-26.78.39c9.75-4.81,14-13.78,14-18.59,0-1.95-.78-3.25-2.08-3.25C394.85,75.54,389.78,86.59,388.22,97.38Z"/><path class="cls-1" d="M435.54,94.13c2.6-4.42,4.29-10.14,4.29-14,0-2.73-.78-4.55-2.6-4.55-6.76,0-12.61,15.47-12.61,27.82,0,8.19,2.6,15,9.23,15,6.24,0,13.26-7,19-21.32.78,0,3.64,1,3.64,1.82-3.9,10.4-13.91,30.55-27.69,30.55-10.14,0-14.56-10.4-14.56-22.75,0-17.68,9.1-39.13,23.53-39.13,7.41,0,10.4,6,10.4,13.52a43.53,43.53,0,0,1-4.29,17.55Z"/><path class="cls-1" d="M447.75,128.06a31.7,31.7,0,0,1-.13-3.51c0-10.27,4-20.93,4-20.93,4.55-27.56,10.27-59.15,15.6-71.24,2.47-5.59,7-8.06,10.92-8.06,6.5,0,9,3.25,9,8.19,0,10.53-11.18,28.34-19.24,38.22l-2.08,10.79c4.16-8.71,9.36-14,15.08-14,5.33,0,7.67,3.64,7.67,8.71,0,8.45-6.5,20.8-16.12,26.52,12.09,12.09,13.78,43.81,39.78,43.81,16.77,0,25.22-15,25.22-28.6,0-11.31-5.85-21.58-17.42-21.58-8.58,0-14.17,5.2-17,16.25l-9.88-4c3.38-9.36,12.74-18.72,26-18.72,18.33,0,27.56,14.17,27.56,29.12,0,16.77-11.57,34.45-34.71,34.45-32.89,0-40.43-35.88-46.67-47.84a34.3,34.3,0,0,1-3.64.26h-.13c-1.17,7.41-2.34,15-3.25,22.23ZM478.7,79.44c0-1.56-.65-2.6-2.21-2.6-3.12,0-7.41,4.42-13,17.42l-.65,4a14.71,14.71,0,0,1,4.16.78C472.72,94.39,478.7,84.38,478.7,79.44ZM480,34.59c0-1.17-.52-1.82-1.17-1.82-2.08,0-3.77,5.46-8.45,27,3.77-7,7.93-16.51,9.49-24.18C479.87,35.24,480,34.85,480,34.59Z"/><path class="cls-2" d="M150.74,146.09v6.6a2.65,2.65,0,0,0,2.74,2.88c1.76,0,2.74-1.28,2.74-3.32v-1.3h-2.76V150h3.8v2.08c0,2.62-1.24,4.5-3.78,4.5a3.68,3.68,0,0,1-3.76-3.92v-6.54a3.77,3.77,0,1,1,7.54-.1h-1a2.74,2.74,0,1,0-5.48.06Z"/><path class="cls-2" d="M163.64,151.91v4.52h-1v-14.1h3.28a3.48,3.48,0,0,1,3.78,3.78v2a3.28,3.28,0,0,1-2.88,3.6l2.9,4.7h-1.24l-2.7-4.52Zm0-1h2.16a2.57,2.57,0,0,0,2.84-2.86v-2a2.53,2.53,0,0,0-2.84-2.74h-2.16Z"/><path class="cls-2" d="M180.82,152.87h-4.9l-1,3.56h-1.08l4-14.1H179l3.9,14.1h-1.08Zm-4.66-.92h4.44l-2.2-8.1Z"/><path class="cls-2" d="M188.56,152.29v4.14h-1v-14.1h3.36c2.24,0,3.7,1.38,3.7,3.86v2.32a3.42,3.42,0,0,1-3.7,3.78Zm0-1h2.24a2.52,2.52,0,0,0,2.76-2.78v-2.32a2.52,2.52,0,0,0-2.76-2.84h-2.24Z"/><path class="cls-2" d="M200.8,142.33v6.48H206v-6.48h1v14.1h-1v-6.68H200.8v6.68h-1v-14.1Z"/><path class="cls-2" d="M213.72,142.33v14.1h-1v-14.1Z"/><path class="cls-2" d="M226.66,152.65a3.78,3.78,0,1,1-7.56,0v-6.54a3.78,3.78,0,1,1,7.56,0v.42h-1v-.46a2.75,2.75,0,1,0-5.5,0v6.6a2.75,2.75,0,1,0,5.5,0v-.5h1Z"/><path class="cls-2" d="M241.8,142.33c2.54,0,3.88,1.5,3.88,4.46v4.74c0,3.5-1.26,4.9-3.86,4.9h-3.48v-14.1h3.46Zm0,1h-2.44v12.08h2.44c2.12,0,2.84-1.08,2.84-3.74v-5.1C244.64,144.29,243.54,143.35,241.8,143.35Z"/><path class="cls-2" d="M252.06,155.43h5.24v1H251v-14.1h6.28v1h-5.24v5.46h3.76v.94h-3.76Z"/><path class="cls-2" d="M268.78,146h-1a2.52,2.52,0,0,0-2.6-2.82,2.23,2.23,0,0,0-2.5,2.24c0,3.48,6.22,3.26,6.22,7.6a3.39,3.39,0,0,1-3.7,3.62c-2.16,0-3.76-1.32-3.76-4h1c0,2.06,1.2,3,2.72,3a2.41,2.41,0,0,0,2.66-2.54c0-3.68-6.22-3.56-6.22-7.62,0-2.16,1.38-3.32,3.56-3.32S268.78,143.39,268.78,146Z"/><path class="cls-2" d="M275,142.33v14.1h-1v-14.1Z"/><path class="cls-2" d="M281.4,146.09v6.6a2.65,2.65,0,0,0,2.74,2.88c1.76,0,2.74-1.28,2.74-3.32v-1.3h-2.76V150h3.8v2.08c0,2.62-1.24,4.5-3.78,4.5a3.68,3.68,0,0,1-3.76-3.92v-6.54a3.77,3.77,0,1,1,7.54-.1h-1a2.74,2.74,0,1,0-5.48.06Z"/><path class="cls-2" d="M299.94,156.43l-5.64-11.72v11.72h-1v-14.1h.92l5.64,11.8V142.39h1v14Z"/><path class="cls-2" d="M307.6,155.43h5.24v1h-6.28v-14.1h6.28v1H307.6v5.46h3.76v.94H307.6Z"/><path class="cls-2" d="M318.92,151.91v4.52h-1v-14.1h3.28a3.48,3.48,0,0,1,3.78,3.78v2a3.28,3.28,0,0,1-2.88,3.6l2.9,4.7h-1.24l-2.7-4.52Zm0-1h2.16a2.57,2.57,0,0,0,2.84-2.86v-2a2.53,2.53,0,0,0-2.84-2.74h-2.16Z"/><path class="cls-1" d="M336.48,157.39V141.27h1v16.12Z"/><path class="cls-2" d="M349.48,142.33h3.32c2.24,0,3.68.84,3.68,3.1v1.14c0,1.56-.62,2.36-1.72,2.7a2.48,2.48,0,0,1,1.82,2.7v1.3c0,2.3-1.44,3.16-3.68,3.16h-3.42Zm1,6.5h2.64c1.44,0,2.28-.58,2.28-2.24v-1c0-1.72-1-2.26-2.66-2.26h-2.26Zm2.6.88h-2.6v5.72h2.36c1.64,0,2.66-.52,2.66-2.34v-1.18C355.54,150.33,354.58,149.71,353.12,149.71Z"/><path class="cls-2" d="M362.64,142.33v10.34a2.75,2.75,0,1,0,5.5,0V142.33h1v10.32a3.79,3.79,0,1,1-7.58,0V142.33Z"/><path class="cls-2" d="M375.72,156.43h-1v-14.1h6.06v1h-5v5.46h3.48v.94h-3.48Z"/><path class="cls-2" d="M386.78,156.43h-1v-14.1h6.06v1h-5v5.46h3.48v.94h-3.48Z"/><path class="cls-2" d="M401.08,152.87h-4.9l-1,3.56h-1.08l4-14.1h1.14l3.9,14.1H402Zm-4.66-.92h4.44l-2.2-8.1Z"/><path class="cls-2" d="M408.82,142.33v13.1h4.9v1h-5.94v-14.1Z"/><path class="cls-2" d="M417.88,152.65v-6.54a3.78,3.78,0,1,1,7.56,0v6.54a3.78,3.78,0,1,1-7.56,0Zm6.52,0v-6.6a2.75,2.75,0,1,0-5.5,0v6.6a2.75,2.75,0,1,0,5.5,0Z"/><path class="cls-2" d="M429.66,158.41l1.88-5.2h1.1l-2.12,5.2Z"/><path class="cls-2" d="M450.82,156.43l-5.64-11.72v11.72h-1v-14.1h.92l5.64,11.8V142.39h1v14Z"/><path class="cls-2" d="M457.58,142.33l3.24,7.34,3.26-7.34h1.12l-3.86,8.62v5.48h-1v-5.48l-3.84-8.62Z"/></svg>