<svg id="Layer_1" data-name="Layer 1" xmlns="http://www.w3.org/2000/svg" viewBox="0 0 566.93 156.56"><defs><style>.cls-1,.cls-2{fill:#fff;}.cls-1{fill-rule:evenodd;}</style></defs><title>Artboard 2</title><path class="cls-1" d="M219.14,43.92a.78.78,0,0,1-.1-.67,2,2,0,0,0-.2-1.35,1.28,1.28,0,0,1-.22-.93c0-.46.22-.6,0-.83a1.36,1.36,0,0,1-.2-1.05,1.08,1.08,0,0,1,.32-.54s0-1.05.08-1.51-.12-.79.06-.87.22.16.24.38a6.21,6.21,0,0,1-.1,1,3.74,3.74,0,0,0,0,1.25,1.46,1.46,0,0,0,.22.42s.16-.28.1-.42a.86.86,0,0,1-.08-.58c0-.34.26-.22.43-.2s.24.18.2.42-.2.36-.2.52-.08.44.14.44.49.08.51.22a.18.18,0,0,0,.14.16s.24-.42.42-.42.24.26,0,.62a1,1,0,0,0-.2.71c0,.4-.14.62-.3.67a1.11,1.11,0,0,0-.27,1.09,2.19,2.19,0,0,1,0,1.35C220,44,219.14,43.92,219.14,43.92Z"/><rect class="cls-2" x="218.69" y="43.69" width="2.12" height="0.25"/><rect class="cls-2" x="218.88" y="43.54" width="1.74" height="0.25"/><rect class="cls-2" x="218.79" y="43.91" width="1.92" height="1.84"/><polygon class="cls-1" points="219.29 45.43 220.21 45.43 221.21 45.43 221.21 46.03 222.12 46.03 222.12 46.64 223.02 46.64 223.02 47.24 223.93 47.24 223.93 47.85 224.84 47.85 224.84 48.45 225.75 48.45 225.75 49.06 226.66 49.06 226.66 50.9 225.96 50.9 224.74 50.9 214.76 50.9 213.54 50.9 212.84 50.9 212.84 49.06 213.75 49.06 213.75 48.45 214.66 48.45 214.66 47.85 215.56 47.85 215.56 47.24 216.47 47.24 216.47 46.64 217.38 46.64 217.38 46.03 218.29 46.03 218.29 45.43 219.29 45.43"/><rect class="cls-2" x="225.58" y="49.91" width="1.86" height="0.3"/><polygon class="cls-1" points="227.22 50.14 226.42 50.14 226.42 51.41 227.22 50.31 227.22 50.14"/><rect class="cls-2" x="224.81" y="50.65" width="2.2" height="1.36"/><rect class="cls-2" x="222.52" y="51.92" width="6.22" height="0.65"/><polygon class="cls-1" points="228.54 52.42 227.8 52.42 227.8 53.7 228.54 52.92 228.54 52.42"/><rect class="cls-2" x="228.55" y="51.67" width="0.26" height="0.5"/><rect class="cls-2" x="227.93" y="51.67" width="0.26" height="0.5"/><rect class="cls-2" x="227.32" y="51.67" width="0.27" height="0.5"/><rect class="cls-2" x="226.26" y="52.42" width="2.08" height="3.71"/><rect class="cls-2" x="225.81" y="55.75" width="5.51" height="0.21"/><rect class="cls-2" x="225.09" y="55.91" width="5.92" height="0.41"/><rect class="cls-2" x="227.65" y="56.27" width="3.61" height="0.27"/><polygon class="cls-1" points="231.01 56.48 230.01 56.48 230.01 57.29 231.01 56.72 231.01 56.48"/><rect class="cls-2" x="229.67" y="56.71" width="1.1" height="0.57"/><polygon class="cls-1" points="230.65 56.98 229.73 56.98 229.73 57.99 230.65 57.44 230.65 56.98"/><rect class="cls-2" x="228.75" y="57.45" width="1.56" height="9.61"/><rect class="cls-2" x="227.41" y="66.88" width="3.65" height="0.28"/><polygon class="cls-1" points="230.91 67.11 230.37 67.11 230.37 68.13 230.91 67.58 230.91 67.11"/><rect class="cls-2" x="228.72" y="66.96" width="1.93" height="4.18"/><rect class="cls-2" x="212.06" y="49.91" width="1.86" height="0.3"/><polygon class="cls-1" points="212.27 50.14 213.07 50.14 213.07 51.41 212.27 50.31 212.27 50.14"/><rect class="cls-2" x="212.49" y="50.65" width="2.2" height="1.36"/><rect class="cls-2" x="210.75" y="51.92" width="6.22" height="0.65"/><polygon class="cls-1" points="210.96 52.42 211.7 52.42 211.7 53.7 210.96 52.92 210.96 52.42"/><rect class="cls-2" x="210.68" y="51.67" width="0.26" height="0.5"/><rect class="cls-2" x="211.3" y="51.67" width="0.27" height="0.5"/><rect class="cls-2" x="211.91" y="51.67" width="0.27" height="0.5"/><rect class="cls-2" x="211.16" y="52.42" width="2.08" height="3.71"/><rect class="cls-2" x="208.17" y="55.75" width="5.51" height="0.21"/><rect class="cls-2" x="208.49" y="55.91" width="5.92" height="0.41"/><rect class="cls-2" x="208.24" y="56.27" width="3.61" height="0.27"/><polygon class="cls-1" points="208.49 56.48 209.48 56.48 209.48 57.29 208.49 56.72 208.49 56.48"/><rect class="cls-2" x="208.73" y="56.71" width="1.1" height="0.57"/><polygon class="cls-1" points="208.85 56.98 209.76 56.98 209.76 57.99 208.85 57.44 208.85 56.98"/><rect class="cls-2" x="209.18" y="57.45" width="1.56" height="9.61"/><rect class="cls-2" x="208.44" y="66.88" width="3.65" height="0.28"/><polygon class="cls-1" points="208.58 67.11 209.13 67.11 209.13 68.13 208.58 67.58 208.58 67.11"/><rect class="cls-2" x="208.85" y="66.96" width="1.93" height="4.18"/><rect class="cls-2" x="212.69" y="50.52" width="14.12" height="7.24"/><rect class="cls-2" x="209.35" y="56.17" width="20.8" height="15.29"/><rect class="cls-2" x="208.74" y="70.5" width="26.46" height="75.36"/><rect class="cls-2" x="208.8" y="116.71" width="11.99" height="30.51"/><rect class="cls-2" x="201.22" y="91.75" width="11.08" height="38.22"/><rect class="cls-2" x="338.48" y="112.09" width="14.33" height="16"/><polygon class="cls-1" points="473.41 103.09 472.13 117.75 470.85 132.4 473.41 132.4 475.97 132.4 474.69 117.75 473.41 103.09"/><polygon class="cls-1" points="381.86 78.69 380.31 85.23 378.76 91.77 381.86 91.77 384.97 91.77 383.42 85.23 381.86 78.69"/><polygon class="cls-1" points="384.97 86.42 384.52 88.93 384.07 91.43 384.97 91.43 385.87 91.43 385.42 88.93 384.97 86.42"/><polygon class="cls-1" points="378.76 86.42 378.31 88.93 377.87 91.43 378.76 91.43 379.66 91.43 379.21 88.93 378.76 86.42"/><polygon class="cls-1" points="381.86 76.44 381.71 78.39 381.55 80.35 381.86 80.35 382.18 80.35 382.02 78.39 381.86 76.44"/><ellipse class="cls-2" cx="381.86" cy="79.42" rx="0.57" ry="0.29"/><ellipse class="cls-2" cx="381.86" cy="77.9" rx="0.36" ry="0.32"/><rect class="cls-2" x="378.63" y="88.38" width="6.47" height="1.49"/><rect class="cls-2" x="378.06" y="91.25" width="7.6" height="2.49"/><rect class="cls-2" x="378.4" y="93.27" width="6.93" height="10.73"/><rect class="cls-2" x="404.77" y="92.47" width="26.17" height="30.38"/><rect class="cls-2" x="382.01" y="95.3" width="25.45" height="28.88"/><rect class="cls-2" x="359.78" y="100.14" width="24.02" height="24.37"/><rect class="cls-2" x="346.88" y="94.13" width="23.66" height="12.02"/><rect class="cls-2" x="345.79" y="101.13" width="108.27" height="36.3"/><polygon class="cls-1" points="345.58 100.96 348.15 100.96 348.15 103.8 345.11 103.8 345.58 100.96"/><rect class="cls-2" x="368.2" y="117.03" width="108.27" height="30.67"/><rect class="cls-2" x="462.52" y="115.17" width="15.1" height="10.89"/><rect class="cls-2" x="473.25" y="121" width="15.1" height="16.29"/><rect class="cls-2" x="483.63" y="109.67" width="16.99" height="27.51"/><rect class="cls-2" x="469.72" y="114.29" width="5.43" height="2.31"/><rect class="cls-2" x="484.7" y="109.12" width="5.31" height="2.64"/><rect class="cls-2" x="488" y="108.34" width="6.84" height="2.64"/><rect class="cls-2" x="432.56" y="99.65" width="14.16" height="5.06"/><rect class="cls-2" x="344.71" y="109.66" width="37.72" height="31.79"/><rect class="cls-2" x="345.28" y="108.64" width="10.14" height="3.19"/><rect class="cls-2" x="357.82" y="108.52" width="11.17" height="3.19"/><rect class="cls-2" x="370.01" y="107.38" width="9.57" height="6.72"/><rect class="cls-2" x="377.87" y="121.63" width="7.75" height="19.37"/><rect class="cls-2" x="347.22" y="107.61" width="2.17" height="1.25"/><rect class="cls-2" x="359.3" y="108.18" width="2.39" height="0.91"/><rect class="cls-2" x="259.53" y="71.45" width="62.91" height="73.72"/><rect class="cls-2" x="262.78" y="71.03" width="7.22" height="1.68"/><rect class="cls-2" x="292.56" y="70.19" width="8.25" height="2.58"/><rect class="cls-2" x="294.23" y="69.48" width="1.22" height="0.97"/><rect class="cls-2" x="295" y="68.45" width="1.16" height="2.19"/><rect class="cls-2" x="278.05" y="68" width="9.54" height="5.23"/><rect class="cls-2" x="280.96" y="67.8" width="2.51" height="0.77"/><polygon class="cls-1" points="281.92 57.73 282.03 63.91 282.14 70.08 281.92 70.08 281.7 70.08 281.81 63.91 281.92 57.73"/><rect class="cls-2" x="532.04" y="113.9" width="14.3" height="11.06"/><rect class="cls-2" x="548.27" y="121.35" width="9.01" height="4.93"/><rect class="cls-2" x="518.58" y="99.11" width="8.53" height="7.45"/><rect class="cls-2" x="535.05" y="108.49" width="5.65" height="9.49"/><rect class="cls-2" x="524.82" y="124.99" width="37.85" height="21.59"/><rect class="cls-2" x="504.99" y="107.17" width="33.4" height="39.53"/><rect class="cls-2" x="520.53" y="101.28" width="2.31" height="7.16"/><rect class="cls-2" x="510.11" y="101.28" width="2.32" height="7.16"/><rect class="cls-2" x="530.95" y="101.28" width="2.31" height="7.16"/><rect class="cls-2" x="507.07" y="106.2" width="29.23" height="5.07"/><rect class="cls-2" x="511.07" y="103.08" width="21.23" height="5.36"/><rect class="cls-2" x="535.78" y="123.29" width="16.6" height="5.84"/><rect class="cls-2" x="537.51" y="109.36" width="1.31" height="2.59"/><rect class="cls-2" x="537.51" y="114.37" width="1.31" height="2.59"/><rect class="cls-2" x="537.51" y="119.37" width="1.31" height="2.59"/><rect class="cls-2" x="449.89" y="133.69" width="11.34" height="13.69"/><rect class="cls-2" x="465.8" y="127.17" width="15.52" height="20.86"/><rect class="cls-2" x="482.88" y="130.04" width="11.61" height="17.6"/><rect class="cls-2" x="9.21" y="113.31" width="17.04" height="8.52"/><rect class="cls-2" x="13.17" y="111.53" width="9.11" height="3.77"/><rect class="cls-2" x="46.13" y="94.42" width="9.11" height="16.64"/><rect class="cls-2" x="56.7" y="98.87" width="4.16" height="9.49"/><rect class="cls-2" x="60.29" y="93.01" width="7.73" height="16.45"/><rect class="cls-2" x="47.17" y="93.43" width="1.98" height="3.37"/><rect class="cls-2" x="5.01" y="119.63" width="24.27" height="28.02"/><rect class="cls-2" x="35.2" y="101.68" width="23.08" height="14.6"/><rect class="cls-2" x="10.53" y="117.46" width="13.61" height="6.91"/><rect class="cls-2" x="14.48" y="117.07" width="2.56" height="1.97"/><rect class="cls-2" x="118.77" y="47.25" width="12.5" height="27.61"/><rect class="cls-2" x="117.57" y="63.56" width="15.11" height="20.11"/><rect class="cls-2" x="108.28" y="69.06" width="26.03" height="16.02"/><rect class="cls-2" x="103.44" y="73.89" width="32.18" height="27.94"/><rect class="cls-2" x="102.79" y="79.1" width="34.35" height="66.53"/><rect class="cls-2" x="117.36" y="50.62" width="5.33" height="27.5"/><rect class="cls-2" x="104.75" y="69.76" width="17.83" height="6.63"/><path class="cls-1" d="M124.35,43.22h1.33A4.34,4.34,0,0,0,128.41,46v1.08h-6.79V46A4.34,4.34,0,0,0,124.35,43.22Z"/><rect class="cls-2" x="124.17" y="34.91" width="1.69" height="9.96"/><rect class="cls-2" x="123.71" y="35.03" width="0.22" height="9.96"/><rect class="cls-2" x="123.85" y="35.13" width="0.67" height="0.39"/><rect class="cls-2" x="123.85" y="37.04" width="0.67" height="0.39"/><rect class="cls-2" x="123.85" y="38.95" width="0.67" height="0.39"/><rect class="cls-2" x="123.85" y="40.87" width="0.67" height="0.39"/><rect class="cls-2" x="123.85" y="42.78" width="0.67" height="0.39"/><rect class="cls-2" x="126.46" y="30.52" width="0.3" height="14.73"/><ellipse class="cls-2" cx="126.7" cy="35.26" rx="0.47" ry="1.1"/><ellipse class="cls-2" cx="126.62" cy="39.6" rx="0.48" ry="1.1"/><polygon class="cls-1" points="125.64 37.12 126.75 37.12 126.93 37.3 126.93 37.6 126.75 37.79 125.64 37.79 125.45 37.6 125.45 37.3 125.64 37.12"/><rect class="cls-2" x="125.55" y="41.43" width="1.05" height="1.42"/><polygon class="cls-1" points="126.24 42.38 127.84 42.38 127.94 42.49 127.84 42.59 126.24 42.59 126.14 42.49 126.24 42.38"/><polygon class="cls-1" points="125.39 43.63 126.87 43.63 126.97 43.73 126.97 44.41 126.87 44.51 125.39 44.51 125.28 44.41 125.28 43.73 125.39 43.63"/><rect class="cls-2" x="126.82" y="44.26" width="0.42" height="1.41"/><rect class="cls-2" x="122.63" y="40.8" width="0.12" height="5.87"/><rect class="cls-2" x="122.03" y="44.71" width="1.47" height="0.27"/><rect class="cls-2" x="122.24" y="44.83" width="0.07" height="1.29"/><polygon class="cls-1" points="124.06 29.48 124.14 32.32 124.23 35.16 124.06 35.16 123.88 35.16 123.97 32.32 124.06 29.48"/><polygon class="cls-1" points="126.05 31.58 126.14 34.42 126.22 37.26 126.05 37.26 125.88 37.26 125.97 34.42 126.05 31.58"/><rect class="cls-2" x="124.28" y="31.33" width="1.48" height="4.25" rx="0.41" ry="0.41"/><rect class="cls-2" x="124.99" y="1.47" width="0.24" height="30.45"/><polygon class="cls-1" points="124.96 1.15 125.25 1.15 125.38 1.28 125.38 2.34 125.25 2.47 124.96 2.47 124.83 2.34 124.83 1.28 124.96 1.15"/><rect class="cls-2" x="123.93" y="4.56" width="1.24" height="0.19"/><polygon class="cls-1" points="123.7 4.43 124.19 4.43 124.38 4.62 124.38 4.69 124.19 4.88 123.7 4.88 123.51 4.69 123.51 4.62 123.7 4.43"/><rect class="cls-2" x="123.93" y="5.81" width="1.24" height="0.19"/><polygon class="cls-1" points="123.7 5.68 124.19 5.68 124.38 5.87 124.38 5.94 124.19 6.13 123.7 6.13 123.51 5.94 123.51 5.87 123.7 5.68"/><rect class="cls-2" x="123.93" y="7.06" width="1.24" height="0.19"/><polygon class="cls-1" points="123.7 6.93 124.19 6.93 124.38 7.12 124.38 7.19 124.19 7.38 123.7 7.38 123.51 7.19 123.51 7.12 123.7 6.93"/><rect class="cls-2" x="123.93" y="8.31" width="1.24" height="0.19"/><polygon class="cls-1" points="123.7 8.18 124.19 8.18 124.38 8.37 124.38 8.44 124.19 8.63 123.7 8.63 123.51 8.44 123.51 8.37 123.7 8.18"/><rect class="cls-2" x="123.93" y="9.56" width="1.24" height="0.19"/><polygon class="cls-1" points="123.7 9.43 124.19 9.43 124.38 9.62 124.38 9.7 124.19 9.88 123.7 9.88 123.51 9.7 123.51 9.62 123.7 9.43"/><rect class="cls-2" x="123.93" y="10.81" width="1.24" height="0.19"/><polygon class="cls-1" points="123.7 10.68 124.19 10.68 124.38 10.87 124.38 10.95 124.19 11.13 123.7 11.13 123.51 10.95 123.51 10.87 123.7 10.68"/><rect class="cls-2" x="123.93" y="16.13" width="1.24" height="0.19"/><polygon class="cls-1" points="123.7 16 124.19 16 124.38 16.19 124.38 16.26 124.19 16.45 123.7 16.45 123.51 16.26 123.51 16.19 123.7 16"/><rect class="cls-2" x="123.93" y="17.38" width="1.24" height="0.19"/><polygon class="cls-1" points="123.7 17.25 124.19 17.25 124.38 17.44 124.38 17.52 124.19 17.7 123.7 17.7 123.51 17.52 123.51 17.44 123.7 17.25"/><rect class="cls-2" x="123.93" y="18.63" width="1.24" height="0.19"/><polygon class="cls-1" points="123.7 18.5 124.19 18.5 124.38 18.69 124.38 18.77 124.19 18.95 123.7 18.95 123.51 18.77 123.51 18.69 123.7 18.5"/><rect class="cls-2" x="123.93" y="19.88" width="1.24" height="0.19"/><polygon class="cls-1" points="123.7 19.75 124.19 19.75 124.38 19.94 124.38 20.02 124.19 20.2 123.7 20.2 123.51 20.02 123.51 19.94 123.7 19.75"/><rect class="cls-2" x="123.93" y="21.14" width="1.24" height="0.19"/><polygon class="cls-1" points="123.7 21 124.19 21 124.38 21.19 124.38 21.27 124.19 21.45 123.7 21.45 123.51 21.27 123.51 21.19 123.7 21"/><rect class="cls-2" x="123.93" y="22.39" width="1.24" height="0.19"/><polygon class="cls-1" points="123.7 22.25 124.19 22.25 124.38 22.44 124.38 22.52 124.19 22.71 123.7 22.71 123.51 22.52 123.51 22.44 123.7 22.25"/><rect class="cls-2" x="123.93" y="26.37" width="1.24" height="0.19"/><polygon class="cls-1" points="123.7 26.24 124.19 26.24 124.38 26.42 124.38 26.5 124.19 26.69 123.7 26.69 123.51 26.5 123.51 26.42 123.7 26.24"/><rect class="cls-2" x="123.93" y="27.62" width="1.24" height="0.19"/><polygon class="cls-1" points="123.7 27.49 124.19 27.49 124.38 27.68 124.38 27.75 124.19 27.94 123.7 27.94 123.51 27.75 123.51 27.68 123.7 27.49"/><rect class="cls-2" x="123.93" y="28.87" width="1.24" height="0.19"/><polygon class="cls-1" points="123.7 28.74 124.19 28.74 124.38 28.93 124.38 29 124.19 29.19 123.7 29.19 123.51 29 123.51 28.93 123.7 28.74"/><polygon class="cls-1" points="125.64 33.07 126.75 33.07 126.93 33.25 126.93 33.56 126.75 33.74 125.64 33.74 125.45 33.56 125.45 33.25 125.64 33.07"/><path class="cls-2" d="M119.84,46.89H130.2a.37.37,0,0,1,.37.37v.62a.37.37,0,0,1-.37.37H119.84a.37.37,0,0,1-.37-.37v-.62A.36.36,0,0,1,119.84,46.89Z"/><rect class="cls-2" x="62.02" y="85.74" width="66.32" height="64.33"/><rect class="cls-2" x="127.54" y="85.04" width="0.8" height="1.84"/><rect class="cls-2" x="122.86" y="85.04" width="0.8" height="1.84"/><rect class="cls-2" x="118.18" y="85.04" width="0.8" height="1.84"/><rect class="cls-2" x="113.5" y="85.04" width="0.8" height="1.84"/><rect class="cls-2" x="108.82" y="85.04" width="0.8" height="1.84"/><rect class="cls-2" x="104.14" y="85.04" width="0.8" height="1.84"/><rect class="cls-2" x="99.46" y="85.04" width="0.8" height="1.84"/><rect class="cls-2" x="94.78" y="85.04" width="0.8" height="1.84"/><rect class="cls-2" x="90.1" y="85.04" width="0.8" height="1.84"/><rect class="cls-2" x="85.42" y="85.04" width="0.8" height="1.84"/><rect class="cls-2" x="80.74" y="85.04" width="0.8" height="1.84"/><rect class="cls-2" x="76.06" y="85.04" width="0.8" height="1.84"/><rect class="cls-2" x="71.38" y="85.04" width="0.8" height="1.84"/><rect class="cls-2" x="66.7" y="85.04" width="0.8" height="1.84"/><rect class="cls-2" x="62.02" y="85.04" width="0.8" height="1.84"/><rect class="cls-2" x="310.14" y="40.61" width="31.88" height="105.08"/><rect class="cls-2" x="312.37" y="40.04" width="27.42" height="2.92"/><rect class="cls-2" x="313.64" y="39.02" width="1.1" height="1.42"/><rect class="cls-2" x="314.97" y="39.02" width="1.1" height="1.42"/><rect class="cls-2" x="316.29" y="39.02" width="1.1" height="1.42"/><rect class="cls-2" x="317.62" y="39.02" width="1.1" height="1.42"/><rect class="cls-2" x="314.13" y="39.22" width="4.22" height="1.3"/><rect class="cls-2" x="319.41" y="38.13" width="12.19" height="2.15"/><rect class="cls-2" x="319.12" y="37.84" width="12.75" height="0.57"/><rect class="cls-2" x="333.01" y="39.59" width="2.2" height="0.65"/><rect class="cls-2" x="334.64" y="39.35" width="0.32" height="0.32"/><rect class="cls-2" x="336.1" y="37.23" width="0.25" height="3.57"/><rect class="cls-2" x="332.48" y="37.11" width="0.2" height="3.13"/><rect class="cls-2" x="328.26" y="36.34" width="0.37" height="1.91"/><rect class="cls-2" x="324.81" y="36.5" width="0.2" height="1.62"/><rect class="cls-2" x="321.32" y="37.23" width="1.38" height="0.81"/><polygon class="cls-1" points="320.3 37.4 319.89 37.4 319.73 37.56 319.73 38.05 319.89 38.21 320.3 38.21 320.46 38.05 320.46 37.56 320.3 37.4"/><rect class="cls-2" x="277.7" y="86.36" width="65.98" height="61.26"/><rect class="cls-2" x="277.01" y="85.99" width="67.35" height="1.08"/><rect class="cls-2" x="286.18" y="80.26" width="49.02" height="9.17"/><rect class="cls-2" x="388.32" y="85.57" width="36.78" height="61.11"/><rect class="cls-2" x="388.1" y="96.46" width="2.15" height="0.33"/><rect class="cls-2" x="388.53" y="81.75" width="1.43" height="4.11" rx="0.29" ry="0.29"/><rect class="cls-2" x="389.58" y="81.9" width="12.92" height="4.97"/><polygon class="cls-1" points="393.68 80.77 394.38 80.77 394.56 80.95 394.56 82.21 394.38 82.39 393.68 82.39 393.5 82.21 393.5 80.95 393.68 80.77"/><polygon class="cls-1" points="397.67 80.77 398.37 80.77 398.55 80.95 398.55 82.21 398.37 82.39 397.67 82.39 397.49 82.21 397.49 80.95 397.67 80.77"/><polygon class="cls-1" points="401.5 80.77 402.19 80.77 402.37 80.95 402.37 82.21 402.19 82.39 401.5 82.39 401.31 82.21 401.31 80.95 401.5 80.77"/><polygon class="cls-1" points="407.6 77.22 408.69 77.22 408.89 77.41 408.89 86 408.69 86.19 407.6 86.19 407.41 86 407.41 77.41 407.6 77.22"/><polygon class="cls-1" points="413.8 77.22 414.89 77.22 415.08 77.41 415.08 86 414.89 86.19 413.8 86.19 413.61 86 413.61 77.41 413.8 77.22"/><polygon class="cls-1" points="418.8 77.22 419.9 77.22 420.09 77.41 420.09 86 419.9 86.19 418.8 86.19 418.61 86 418.61 77.41 418.8 77.22"/><rect class="cls-2" x="419.09" y="82.42" width="5.72" height="4.3"/><rect class="cls-2" x="408.65" y="77.98" width="10.58" height="8.69"/><polygon class="cls-1" points="410.51 77.69 411.17 77.43 411.56 77.43 412.22 77.69 412.22 78.6 410.51 78.6 410.51 77.69"/><rect class="cls-2" x="401.93" y="83.08" width="7.18" height="3.48"/><circle class="cls-2" cx="407.8" cy="83.06" r="1.48"/><circle class="cls-2" cx="404.63" cy="83.27" r="1.2"/><polygon class="cls-1" points="401.87 81.1 402.84 81.1 404.38 83.46 401.87 83.46 401.87 81.1"/><rect class="cls-2" x="405.75" y="80.68" width="0.42" height="3.12"/><rect class="cls-2" x="406.78" y="80.74" width="0.93" height="1.79"/><rect class="cls-2" x="402.08" y="80.53" width="5.93" height="0.74"/><rect class="cls-2" x="403.83" y="81.14" width="0.97" height="1.69"/><polygon class="cls-1" points="397.02 66.04 397.4 72.75 397.98 82.77 396.82 82.77 395.67 82.77 396.25 72.75 396.63 66.04 397.02 66.04"/><polygon class="cls-2" points="392.49 82.25 394.46 67.99 395 67.71 392.97 82.32 392.49 82.25"/><polygon class="cls-2" points="394.08 82.26 395.32 67.77 395.82 67.81 394.57 82.3 394.08 82.26"/><polygon class="cls-2" points="398.77 82.3 397.53 67.81 398.02 67.77 399.27 82.26 398.77 82.3"/><polygon class="cls-2" points="400.6 82.32 399.34 73.17 394.03 73.18 394.03 72.69 399.56 72.68 399.77 72.68 399.8 72.89 401.09 82.25 400.6 82.32"/><rect class="cls-2" x="392.5" y="68.84" width="8.15" height="0.44"/><rect class="cls-2" x="392.82" y="65.15" width="7.77" height="0.49"/><polygon class="cls-1" points="393.51 62.07 395.77 62.07 395.31 65.24 394.32 65.24 393.51 62.07"/><polygon class="cls-1" points="399.92 62.3 398.61 62.3 396.76 65.24 399.16 65.24 399.92 62.3"/><rect class="cls-2" x="395.19" y="64.22" width="2.4" height="1.04"/><ellipse class="cls-2" cx="391.7" cy="64.37" rx="0.68" ry="1.36"/><ellipse class="cls-2" cx="400.7" cy="67.53" rx="0.61" ry="1.48"/><polygon class="cls-1" points="391.95 63.78 393.71 64.92 393.71 65.29 391.95 65.29 391.95 63.78"/><polygon class="cls-1" points="394.12 65.53 397.77 65.53 397.77 68.43 395.39 68.43 394.12 65.53"/><polygon class="cls-1" points="392.73 67.91 394.01 67.91 394.12 68.02 394.12 68.81 394.01 68.92 392.73 68.92 392.61 68.81 392.61 68.02 392.73 67.91"/><polygon class="cls-1" points="392.38 66.48 395.66 66.48 395.66 67.33 394.61 68.14 392.38 66.48"/><polygon class="cls-1" points="400.53 67.07 398.61 68.2 398.61 69.01 400.53 69.01 400.53 67.07"/><polygon class="cls-1" points="399.11 65.5 396.85 65.5 396.85 68.58 397.89 68.58 399.11 65.5"/><ellipse class="cls-2" cx="393.41" cy="70.19" rx="0.39" ry="1.06"/><ellipse class="cls-2" cx="393.66" cy="73.93" rx="0.46" ry="0.97"/><ellipse class="cls-2" cx="393.25" cy="79.18" rx="0.49" ry="1.34"/><rect class="cls-2" x="393.74" y="74.99" width="6.06" height="0.58"/><rect class="cls-2" x="393.22" y="78.04" width="7.1" height="0.58"/><rect class="cls-2" x="393.07" y="79.87" width="7.4" height="0.58"/><rect class="cls-2" x="393.74" y="70.03" width="3.1" height="0.58"/><rect class="cls-2" x="396.47" y="71.54" width="2.49" height="0.58"/><polygon class="cls-1" points="398.59 71.13 399.08 71.13 399.22 71.28 399.22 72.64 399.08 72.79 398.59 72.79 398.44 72.64 398.44 71.28 398.59 71.13"/><path class="cls-1" d="M398.41,69.13h1a.43.43,0,0,1,0,.84h-1a.43.43,0,0,1,0-.84Z"/><polygon class="cls-1" points="400.5 68.92 399.86 68.92 399.86 69.19 400.27 70.44 400.5 68.92"/><rect class="cls-2" x="241.68" y="91.06" width="23.64" height="8.07"/><rect class="cls-2" x="249.55" y="87.97" width="6.94" height="5.13"/><rect class="cls-2" x="242.69" y="86.63" width="7.56" height="6.77"/><rect class="cls-2" x="258.07" y="89.47" width="5.36" height="3.04"/><rect class="cls-2" x="230.83" y="89.67" width="7.12" height="5.28"/><rect class="cls-2" x="232.9" y="91.96" width="7.56" height="3.59"/><rect class="cls-2" x="200.09" y="90.97" width="8.29" height="2.96"/><rect class="cls-2" x="207.08" y="90.56" width="3.11" height="3.06"/><polygon class="cls-1" points="207.95 89.22 208.06 89.93 208.17 90.64 207.95 90.64 207.73 90.64 207.84 89.93 207.95 89.22"/><rect class="cls-2" x="146.29" y="83.66" width="38.23" height="64.72"/><polygon class="cls-1" points="186.8 75.6 190.4 75.6 190.4 76.22 191.78 76.22 191.78 76.02 192.91 76.02 192.91 76.22 196.45 76.22 196.45 76.02 197.59 76.02 197.59 76.22 198.96 76.22 198.96 75.6 202.56 75.6 202.56 76.94 203.84 76.94 203.84 80.63 204.27 80.63 204.27 85.44 204.71 85.44 204.71 88.44 205.52 88.44 205.52 88.94 206.03 88.94 206.03 90.07 206.53 90.07 206.53 93.32 206.77 93.32 206.77 98.19 208.72 98.19 208.72 97.95 209.65 97.95 209.65 98.19 210.52 98.19 210.52 97.8 214.13 97.8 214.13 98.95 214.97 98.95 214.97 101.79 215.41 101.79 215.41 107.52 215.8 107.52 215.8 108.75 216.25 108.75 216.25 110.74 216.51 110.74 216.51 148.38 216.25 148.38 215.8 148.38 215.41 148.38 214.97 148.38 206.77 148.38 206.53 148.38 206.03 148.38 205.52 148.38 204.71 148.38 204.27 148.38 203.84 148.38 203.41 148.38 202.98 148.38 197.27 148.38 197.02 148.38 196.56 148.38 196.18 148.38 195.73 148.38 187.54 148.38 187.29 148.38 186.79 148.38 186.29 148.38 185.48 148.38 185.04 148.38 184.6 148.38 184.17 148.38 183.74 148.38 183.74 82.47 184.17 82.47 184.17 80.63 184.6 80.63 184.6 76.94 186.8 76.94 186.8 75.6"/><polygon class="cls-1" points="144.02 75.6 140.41 75.6 140.41 76.22 139.04 76.22 139.04 76.02 137.91 76.02 137.91 76.22 134.37 76.22 134.37 76.02 133.24 76.02 133.24 76.22 131.86 76.22 131.86 75.6 128.25 75.6 128.25 76.94 126.98 76.94 126.98 80.63 126.55 80.63 126.55 85.44 126.11 85.44 126.11 88.44 125.3 88.44 125.3 88.94 124.8 88.94 124.8 90.07 124.3 90.07 124.3 93.32 124.04 93.32 124.04 98.19 122.1 98.19 122.1 97.95 121.17 97.95 121.17 98.19 120.3 98.19 120.3 97.8 116.69 97.8 116.69 98.95 115.85 98.95 115.85 101.79 115.41 101.79 115.41 107.52 115.02 107.52 115.02 108.75 114.57 108.75 114.57 110.74 114.31 110.74 114.31 148.38 114.57 148.38 115.02 148.38 115.41 148.38 115.85 148.38 124.04 148.38 124.3 148.38 124.8 148.38 125.3 148.38 126.11 148.38 126.55 148.38 126.98 148.38 127.41 148.38 127.84 148.38 133.54 148.38 133.8 148.38 134.25 148.38 134.64 148.38 135.09 148.38 143.28 148.38 143.53 148.38 144.03 148.38 144.53 148.38 145.34 148.38 145.78 148.38 146.22 148.38 146.65 148.38 147.08 148.38 147.08 82.47 146.65 82.47 146.65 80.63 146.22 80.63 146.22 76.94 144.02 76.94 144.02 75.6"/><rect class="cls-2" x="157.7" y="42.04" width="15.67" height="7.15"/><rect class="cls-2" x="157.87" y="41.57" width="15.33" height="7.15"/><rect class="cls-2" x="158.21" y="41.08" width="14.64" height="7.15"/><rect class="cls-2" x="158.43" y="40.82" width="14.2" height="7.15"/><polygon class="cls-1" points="158.76 40.35 159.18 40.35 159.18 39.66 163.26 37.34 167.81 37.34 171.89 39.66 171.89 40.35 172.31 40.35 172.31 47.5 158.76 47.5 158.76 40.35"/><polygon class="cls-1" points="159 39.59 159.12 39.49 159.39 39.49 159.51 39.59 159.51 40.8 159 40.8 159 39.59"/><polygon class="cls-1" points="171.56 39.59 171.68 39.49 171.95 39.49 172.07 39.59 172.07 40.8 171.56 40.8 171.56 39.59"/><polygon class="cls-1" points="165.58 31.81 165.64 34.71 165.69 37.6 165.58 37.6 165.48 37.6 165.53 34.71 165.58 31.81"/><polygon class="cls-1" points="162.97 35.01 163 36.48 163.03 37.94 162.97 37.94 162.92 37.94 162.94 36.48 162.97 35.01"/><rect class="cls-2" x="164.26" y="32.87" width="0.09" height="4.57"/><polygon class="cls-1" points="164.31 33.09 164.41 33.13 164.31 33.17 164.19 33.13 164.31 33.09"/><polygon class="cls-1" points="164.31 33.59 164.41 33.63 164.31 33.67 164.19 33.63 164.31 33.59"/><polygon class="cls-1" points="164.31 34.09 164.41 34.13 164.31 34.17 164.19 34.13 164.31 34.09"/><polygon class="cls-1" points="164.31 34.59 164.41 34.63 164.31 34.67 164.19 34.63 164.31 34.59"/><polygon class="cls-1" points="164.31 35.59 164.41 35.63 164.31 35.67 164.19 35.63 164.31 35.59"/><polygon class="cls-1" points="164.31 35.09 164.41 35.13 164.31 35.17 164.19 35.13 164.31 35.09"/><rect class="cls-2" x="163.5" y="34.14" width="0.07" height="3.62"/><polygon class="cls-1" points="163.53 34.3 163.62 34.34 163.53 34.37 163.45 34.34 163.53 34.3"/><polygon class="cls-1" points="163.53 34.7 163.62 34.73 163.53 34.77 163.45 34.73 163.53 34.7"/><polygon class="cls-1" points="163.53 35.1 163.62 35.13 163.53 35.16 163.45 35.13 163.53 35.1"/><polygon class="cls-1" points="163.53 35.5 163.62 35.53 163.53 35.56 163.45 35.53 163.53 35.5"/><polygon class="cls-1" points="163.53 36.29 163.62 36.32 163.53 36.35 163.45 36.32 163.53 36.29"/><polygon class="cls-1" points="163.53 35.89 163.62 35.92 163.53 35.96 163.45 35.92 163.53 35.89"/><rect class="cls-2" x="163.21" y="34.99" width="0.07" height="3.62"/><polygon class="cls-1" points="163.24 35.16 163.33 35.19 163.24 35.23 163.16 35.19 163.24 35.16"/><polygon class="cls-1" points="163.24 35.55 163.33 35.59 163.24 35.62 163.16 35.59 163.24 35.55"/><polygon class="cls-1" points="163.24 35.95 163.33 35.98 163.24 36.02 163.16 35.98 163.24 35.95"/><polygon class="cls-1" points="163.24 36.35 163.33 36.38 163.24 36.41 163.16 36.38 163.24 36.35"/><polygon class="cls-1" points="163.24 37.14 163.33 37.17 163.24 37.21 163.16 37.17 163.24 37.14"/><polygon class="cls-1" points="163.24 36.75 163.33 36.78 163.24 36.81 163.16 36.78 163.24 36.75"/><rect class="cls-2" x="163.93" y="34.11" width="0.07" height="3.78"/><polygon class="cls-1" points="163.96 34.29 164.05 34.33 163.96 34.36 163.87 34.33 163.96 34.29"/><polygon class="cls-1" points="163.96 34.71 164.05 34.74 163.96 34.77 163.87 34.74 163.96 34.71"/><polygon class="cls-1" points="163.96 35.12 164.05 35.16 163.96 35.19 163.87 35.16 163.96 35.12"/><polygon class="cls-1" points="163.96 35.53 164.05 35.57 163.96 35.6 163.87 35.57 163.96 35.53"/><polygon class="cls-1" points="163.96 36.36 164.05 36.4 163.96 36.43 163.87 36.4 163.96 36.36"/><polygon class="cls-1" points="163.96 35.95 164.05 35.98 163.96 36.02 163.87 35.98 163.96 35.95"/><polygon class="cls-1" points="165.27 34.05 165.3 35.52 165.33 36.98 165.27 36.98 165.22 36.98 165.25 35.52 165.27 34.05"/><polygon class="cls-1" points="168.16 34.96 168.19 36.42 168.21 37.89 168.16 37.89 168.1 37.89 168.13 36.42 168.16 34.96"/><polygon class="cls-1" points="170.01 36.49 170.04 37.95 170.07 39.42 170.01 39.42 169.96 39.42 169.99 37.95 170.01 36.49"/><polygon class="cls-1" points="164.63 34.96 164.82 34.96 164.92 35.05 164.92 35.94 164.82 36.04 164.63 36.04 164.53 35.94 164.53 35.05 164.63 34.96"/><polygon class="cls-1" points="167.36 35.5 167.47 35.5 167.53 35.56 167.53 36.61 167.47 36.67 167.36 36.67 167.3 36.61 167.3 35.56 167.36 35.5"/><polygon class="cls-1" points="166.15 35.04 166.29 35.04 166.34 35.1 166.34 36 166.29 36.06 166.15 36.06 166.1 36 166.1 35.1 166.15 35.04"/><polygon class="cls-1" points="166.61 35.46 166.71 35.46 166.78 35.53 166.78 36.21 166.71 36.27 166.61 36.27 166.55 36.21 166.55 35.53 166.61 35.46"/><rect class="cls-2" x="165.11" y="34.99" width="0.32" height="0.32" transform="translate(23.53 127.13) rotate(-44.99)"/><polygon class="cls-1" points="163.84 35.73 164.03 35.73 164.13 35.83 164.13 36.72 164.03 36.81 163.84 36.81 163.74 36.72 163.74 35.83 163.84 35.73"/><polygon class="cls-1" points="162.3 37.16 163.26 36.61 167.81 36.61 168.76 37.16 168.76 38.88 162.3 38.88 162.3 37.16"/><rect class="cls-2" x="162.53" y="36.18" width="0.07" height="3.62"/><polygon class="cls-1" points="162.56 36.35 162.65 36.38 162.56 36.41 162.48 36.38 162.56 36.35"/><polygon class="cls-1" points="162.56 36.74 162.65 36.78 162.56 36.81 162.48 36.78 162.56 36.74"/><polygon class="cls-1" points="162.56 37.14 162.65 37.17 162.56 37.21 162.48 37.17 162.56 37.14"/><polygon class="cls-1" points="162.56 37.54 162.65 37.57 162.56 37.6 162.48 37.57 162.56 37.54"/><polygon class="cls-1" points="162.56 38.33 162.65 38.36 162.56 38.4 162.48 38.36 162.56 38.33"/><polygon class="cls-1" points="162.56 37.93 162.65 37.97 162.56 38 162.48 37.97 162.56 37.93"/><polygon class="cls-1" points="168.96 37.26 169.04 37.26 169.09 37.32 169.09 38.37 169.04 38.43 168.96 38.43 168.9 38.37 168.9 37.32 168.96 37.26"/><polygon class="cls-1" points="167.93 36.45 168.16 36.26 168.39 36.45 168.16 36.63 167.93 36.45"/><polygon class="cls-1" points="163.78 36.14 164.39 35.87 166.68 35.87 167.29 36.14 167.29 37 163.78 37 163.78 36.14"/><polygon class="cls-1" points="168.22 36.33 168.32 36.33 168.38 36.4 168.38 37.08 168.32 37.14 168.22 37.14 168.16 37.08 168.16 36.4 168.22 36.33"/><rect class="cls-2" x="156.18" y="44.36" width="2.16" height="16.42"/><rect class="cls-2" x="154.85" y="47.62" width="1.69" height="13.03"/><polygon class="cls-1" points="155.25 47.33 156.04 47.33 156.09 47.39 156.09 47.77 156.04 47.83 155.25 47.83 155.19 47.77 155.19 47.39 155.25 47.33"/><path class="cls-1" d="M154.85,48.46a3,3,0,0,1-.18.94c-.14.2.12.27.12.27s-.21.44,0,.69a.73.73,0,0,1,.13.49l-.17.32.27.2,0-3Z"/><rect class="cls-2" x="153.5" y="59.31" width="0.51" height="0.52"/><polygon class="cls-1" points="153.76 59.09 153.9 59.19 153.76 59.37 153.62 59.19 153.76 59.09"/><rect class="cls-2" x="153.3" y="59.86" width="0.92" height="0.69"/><polygon class="cls-1" points="153.44 59.35 154.07 59.35 154.16 59.64 154.16 60.16 153.36 60.16 153.36 59.64 153.44 59.35"/><rect class="cls-2" x="153.22" y="60.26" width="1.08" height="12.12"/><rect class="cls-2" x="154.2" y="60.4" width="4.08" height="1.62"/><rect class="cls-2" x="154.42" y="60.26" width="0.36" height="0.25"/><polygon class="cls-1" points="153.1 63.36 153.55 63.03 153.55 69.81 153.1 69.81 153.1 63.36"/><polygon class="cls-1" points="152.87 65.9 153.32 65.58 153.32 72.35 152.87 72.35 152.87 65.9"/><polygon class="cls-1" points="152.98 65.13 153.43 64.81 153.43 71.58 152.98 71.58 152.98 65.13"/><rect class="cls-2" x="150.17" y="75.35" width="0.51" height="0.52"/><polygon class="cls-1" points="150.43 75.13 150.57 75.24 150.43 75.41 150.29 75.24 150.43 75.13"/><rect class="cls-2" x="149.96" y="75.91" width="0.92" height="0.69"/><polygon class="cls-1" points="150.11 75.4 150.75 75.4 150.83 75.68 150.83 76.21 150.03 76.21 150.03 75.68 150.11 75.4"/><rect class="cls-2" x="149.89" y="76.31" width="1.09" height="12.12"/><rect class="cls-2" x="150.91" y="76.42" width="0.36" height="4.91"/><rect class="cls-2" x="157.31" y="43.54" width="0.33" height="1.07"/><polygon class="cls-2" points="156.77 43.35 157.61 42.88 157.66 42.97 156.77 43.47 156.77 44.45 156.69 44.45 156.65 44.45 156.59 44.45 156.59 42.9 156.59 42.86 156.62 42.85 157.72 42.45 157.75 42.55 156.77 42.91 156.77 43.35"/><rect class="cls-2" x="172.48" y="44.36" width="2.16" height="16.42"/><rect class="cls-2" x="174.28" y="47.62" width="1.69" height="13.03"/><polygon class="cls-1" points="175.57 47.33 174.78 47.33 174.73 47.39 174.73 47.77 174.78 47.83 175.57 47.83 175.63 47.77 175.63 47.39 175.57 47.33"/><path class="cls-1" d="M176,48.46a2.89,2.89,0,0,0,.19.94c.14.2-.12.27-.12.27s.21.44,0,.69a.71.71,0,0,0-.13.49l.17.32-.27.2,0-3Z"/><rect class="cls-2" x="176.8" y="59.31" width="0.51" height="0.52"/><polygon class="cls-1" points="177.06 59.09 176.92 59.19 177.06 59.37 177.2 59.19 177.06 59.09"/><rect class="cls-2" x="176.6" y="59.86" width="0.92" height="0.69"/><polygon class="cls-1" points="177.38 59.35 176.75 59.35 176.66 59.64 176.66 60.16 177.46 60.16 177.46 59.64 177.38 59.35"/><rect class="cls-2" x="176.52" y="60.26" width="1.08" height="12.12"/><rect class="cls-2" x="172.54" y="60.4" width="4.07" height="1.62"/><rect class="cls-2" x="176.04" y="60.26" width="0.36" height="0.25"/><polygon class="cls-1" points="177.72 63.36 177.26 63.03 177.26 69.81 177.72 69.81 177.72 63.36"/><polygon class="cls-1" points="177.94 65.9 177.5 65.58 177.5 72.35 177.94 72.35 177.94 65.9"/><polygon class="cls-1" points="177.84 65.13 177.39 64.81 177.39 71.58 177.84 71.58 177.84 65.13"/><rect class="cls-2" x="180.13" y="75.35" width="0.51" height="0.52"/><polygon class="cls-1" points="180.39 75.13 180.25 75.24 180.39 75.41 180.53 75.24 180.39 75.13"/><rect class="cls-2" x="179.93" y="75.91" width="0.92" height="0.69"/><polygon class="cls-1" points="180.71 75.4 180.07 75.4 179.99 75.68 179.99 76.21 180.79 76.21 180.79 75.68 180.71 75.4"/><rect class="cls-2" x="179.85" y="76.31" width="1.08" height="12.12"/><rect class="cls-2" x="179.55" y="76.42" width="0.36" height="4.91"/><rect class="cls-2" x="173.18" y="43.54" width="0.33" height="1.07"/><polygon class="cls-2" points="174.05 43.35 173.21 42.88 173.16 42.97 174.05 43.47 174.05 44.45 174.13 44.45 174.18 44.45 174.23 44.45 174.23 42.9 174.23 42.86 174.19 42.85 173.1 42.45 173.06 42.55 174.05 42.91 174.05 43.35"/><rect class="cls-2" x="153.97" y="61.55" width="22.89" height="19.83"/><rect class="cls-2" x="157.82" y="48.16" width="15.18" height="33.22"/><rect class="cls-2" x="151.2" y="68.9" width="28.41" height="14.55"/><rect class="cls-2" x="149.77" y="79.92" width="31.28" height="14.55"/><path class="cls-1" d="M528.64,10.59H490a.8.8,0,0,0-.87.7V147.46a.8.8,0,0,0,.87.7h38.62a.8.8,0,0,0,.87-.7V11.29A.8.8,0,0,0,528.64,10.59Z"/><path class="cls-1" d="M497.32,7.2h24a.47.47,0,0,1,.51.41v4.54a.47.47,0,0,1-.51.41h-24a.47.47,0,0,1-.51-.41V7.62A.47.47,0,0,1,497.32,7.2Z"/><rect class="cls-2" x="500.03" y="2.2" width="0.4" height="6.31"/><rect class="cls-2" x="501.92" y="6.7" width="4.37" height="0.81"/><polygon class="cls-1" points="505.1 6.33 504.49 6.33 504.28 6.5 504.28 6.97 504.49 7.14 505.1 7.14 505.31 6.97 505.31 6.5 505.1 6.33"/><rect class="cls-2" x="500.94" y="2.43" width="0.4" height="6.09"/><rect class="cls-2" x="504.44" y="129.86" width="55.63" height="18.4"/><rect class="cls-2" x="513.89" y="127.92" width="38.12" height="6.29"/><rect class="cls-2" x="432.5" y="84.12" width="30.43" height="65.41"/><rect class="cls-2" x="433.91" y="80.3" width="20.55" height="4.82"/><rect class="cls-2" x="446.25" y="78.06" width="8.95" height="7.49"/><path class="cls-1" d="M448.66,76.64h3.54a.42.42,0,0,1,.44.39v1.77a.42.42,0,0,1-.44.39h-3.54a.42.42,0,0,1-.44-.39V77A.42.42,0,0,1,448.66,76.64Z"/><rect class="cls-2" x="444.48" y="76.38" width="2.31" height="2.45"/><rect class="cls-2" x="436.37" y="77.8" width="11.06" height="5.69"/><polygon class="cls-1" points="463.78 100.62 460.97 98.58 460.97 149.53 463.78 149.53 463.78 100.62"/><polygon class="cls-1" points="463.43 94.93 460.62 92.89 460.62 143.84 463.43 143.84 463.43 94.93"/><rect class="cls-2" x="429.6" y="130.3" width="25.71" height="15.89"/><rect class="cls-2" x="429.96" y="128.33" width="3.21" height="2.59"/><rect class="cls-2" x="454.84" y="123.66" width="4.84" height="1.92"/><rect class="cls-2" x="453.82" y="124.38" width="19.57" height="21.77"/><rect class="cls-2" x="457.4" y="124.26" width="16.3" height="0.43"/><rect class="cls-2" x="459.44" y="122.78" width="2.85" height="2.34"/><rect class="cls-2" x="465.68" y="122.55" width="2.76" height="2.54"/><rect class="cls-2" x="469.26" y="122.15" width="3.41" height="2.8"/><polygon class="cls-1" points="473.56 124.54 473.31 124.54 473.31 125.41 473.56 125.01 473.56 124.54"/><rect class="cls-2" x="227.11" y="93.73" width="17.23" height="52.02"/><rect class="cls-2" x="223.39" y="92.95" width="14.47" height="52.8"/><rect class="cls-2" x="223.39" y="90.71" width="4.69" height="52.8"/><rect class="cls-2" x="231.24" y="92.39" width="4.69" height="51.12"/><rect class="cls-2" x="252.33" y="93.73" width="17.23" height="52.02"/><rect class="cls-2" x="258.81" y="92.95" width="14.47" height="52.8"/><rect class="cls-2" x="268.6" y="90.71" width="4.69" height="52.8"/><rect class="cls-2" x="260.74" y="92.39" width="4.69" height="51.12"/><rect class="cls-2" x="238.96" y="94.89" width="21.64" height="50.85"/><rect class="cls-2" y="144.96" width="566.93" height="11.6"/><polygon class="cls-1" points="289.03 63.53 289.16 63.66 289.03 63.78 288.91 63.66 289.03 63.53"/><circle class="cls-2" cx="289.03" cy="66.95" r="0.26"/><polygon class="cls-1" points="289.06 63.69 289.09 65.03 289.14 67.79 289.03 67.79 288.92 67.79 288.98 65.03 289 63.69 289.06 63.69"/><polygon class="cls-1" points="288.75 64.97 289.03 64.84 289.32 64.97 289.03 65.1 288.75 64.97"/><ellipse class="cls-2" cx="289.03" cy="65.74" rx="0.2" ry="0.4"/><ellipse class="cls-2" cx="288.64" cy="65.72" rx="0.25" ry="0.22"/><polygon class="cls-1" points="288.54 65.86 288.69 65.92 288.54 65.98 288.39 65.92 288.54 65.86"/><polygon class="cls-1" points="288.76 65.83 288.9 65.97 288.76 66.11 288.62 65.97 288.76 65.83"/><polygon class="cls-1" points="288.63 65.9 288.65 66.14 288.46 66.27 288.44 66.03 288.63 65.9"/><path class="cls-1" d="M288.68,66h0l-.16.23.2.24h-.08a.24.24,0,0,1,0-.49Z"/><rect class="cls-2" x="288.68" y="66.43" width="0.11" height="0.11" transform="translate(37.55 223.63) rotate(-45)"/><ellipse class="cls-2" cx="289.42" cy="65.72" rx="0.25" ry="0.22"/><polygon class="cls-1" points="289.53 65.86 289.38 65.92 289.53 65.98 289.68 65.92 289.53 65.86"/><polygon class="cls-1" points="289.31 65.83 289.17 65.97 289.31 66.11 289.45 65.97 289.31 65.83"/><polygon class="cls-1" points="289.43 65.9 289.41 66.14 289.61 66.27 289.63 66.03 289.43 65.9"/><path class="cls-1" d="M289.38,66h0l.16.23-.2.24h.08a.24.24,0,0,0,0-.49Z"/><rect class="cls-2" x="289.27" y="66.43" width="0.11" height="0.11" transform="translate(39.73 227.21) rotate(-45.72)"/><rect class="cls-2" x="288.7" y="68.05" width="0.65" height="0.21"/><polygon class="cls-1" points="288.64 68.75 288.76 68.67 289.3 68.67 289.43 68.75 289.43 69.1 288.64 69.1 288.64 68.75"/><polygon class="cls-1" points="288.81 67.72 288.86 67.63 289.21 67.63 289.25 67.72 289.25 69.26 288.81 69.26 288.81 67.72"/><polygon class="cls-1" points="289.44 69.04 290.15 70.85 291.28 73.67 289.03 73.67 286.79 73.67 287.91 70.85 288.63 69.04 289.44 69.04"/><rect class="cls-2" x="286.86" y="73.62" width="4.35" height="2.96"/><rect class="cls-2" x="287.03" y="76.19" width="4.01" height="0.55"/><polygon class="cls-1" points="290.88 76.59 291.96 78.75 293.65 82.12 290.27 82.12 284.42 82.12 286.11 78.75 287.19 76.59 290.88 76.59"/><rect class="cls-2" x="284.53" y="81.99" width="9.01" height="3.56"/><rect class="cls-2" x="282" y="85.24" width="14.07" height="31.63"/><path class="cls-1" d="M282.37,81.78l0-.12s-.2-.07-.22-.21-.22-.2-.13-.41.26-.21.46-.09.2.22.29.34l-.07.42s.38,0,.37.17-.08.36,0,.45l.16.39-.16.24,0,.19,0,.16-.08.41s.16,0,.09.17a.66.66,0,0,0-.08.39,5.85,5.85,0,0,0,0,.67l.07.2-.83,0-.11-.77a.85.85,0,0,1-.23-.57c0-.16-.23-.09-.17-.27a.48.48,0,0,1,.14-.23,3.17,3.17,0,0,0,.06-.5,3,3,0,0,0,0-.38s-.06,0,0-.2.13-.3.22-.3Z"/><ellipse class="cls-2" cx="282.54" cy="88.25" rx="1.83" ry="2.23"/><rect class="cls-2" x="281.78" y="85.68" width="1.44" height="0.9"/><polygon class="cls-1" points="281.67 85.53 283.42 85.53 283.53 85.63 283.53 85.73 283.42 85.84 281.67 85.84 281.57 85.73 281.57 85.63 281.67 85.53"/><ellipse class="cls-2" cx="282.38" cy="85.58" rx="0.61" ry="0.53"/><ellipse class="cls-2" cx="282.98" cy="85.58" rx="0.61" ry="0.53"/><rect class="cls-2" x="280.11" y="88.13" width="3.2" height="0.48"/><rect class="cls-2" x="280.29" y="88.52" width="1.18" height="0.21"/><rect class="cls-2" x="280.42" y="88.66" width="0.85" height="0.25"/><rect class="cls-2" x="280.51" y="88.85" width="1.63" height="1.91"/><polygon class="cls-1" points="280.55 90.68 281.86 90.68 281.86 91.02 280.71 91.02 280.55 90.68"/><rect class="cls-2" x="280.7" y="90.9" width="1.28" height="1.21"/><rect class="cls-2" x="280.82" y="92" width="0.75" height="1.21"/><polygon class="cls-1" points="280.94 93.02 281.51 93.02 281.51 93.53 281.07 93.53 280.94 93.02"/><rect class="cls-2" x="281.06" y="93.4" width="0.77" height="0.43"/><rect class="cls-2" x="281.14" y="93.76" width="0.95" height="1.87"/><rect class="cls-2" x="281.24" y="95.39" width="1.03" height="21.5"/><rect class="cls-2" x="280.71" y="104.07" width="2.11" height="0.56"/><rect class="cls-2" x="280.9" y="104.48" width="0.96" height="0.73"/><polygon class="cls-1" points="281.07 105.12 283.01 105.12 283.01 105.71 281.35 105.71 281.07 105.12"/><path class="cls-1" d="M295.7,81.78l0-.12s.2-.07.22-.21.22-.2.13-.41-.26-.21-.46-.09-.2.22-.29.34l.07.42s-.38,0-.37.17.08.36,0,.45l-.16.39L295,83l0,.19,0,.16.08.41s-.16,0-.09.17a.65.65,0,0,1,.08.39,6.2,6.2,0,0,1,0,.67l-.07.2.84,0,.12-.77a.86.86,0,0,0,.23-.57c0-.16.23-.09.17-.27a.47.47,0,0,0-.14-.23,3.12,3.12,0,0,1-.06-.5,3.22,3.22,0,0,1,0-.38s.06,0,0-.2-.13-.3-.22-.3Z"/><ellipse class="cls-2" cx="295.53" cy="88.25" rx="1.82" ry="2.23"/><rect class="cls-2" x="294.85" y="85.68" width="1.44" height="0.9"/><polygon class="cls-1" points="296.39 85.53 294.64 85.53 294.54 85.63 294.54 85.73 294.64 85.84 296.39 85.84 296.5 85.73 296.5 85.63 296.39 85.53"/><ellipse class="cls-2" cx="295.68" cy="85.58" rx="0.61" ry="0.53"/><ellipse class="cls-2" cx="295.09" cy="85.58" rx="0.61" ry="0.53"/><rect class="cls-2" x="294.75" y="88.13" width="3.2" height="0.48"/><rect class="cls-2" x="296.6" y="88.52" width="1.18" height="0.21"/><rect class="cls-2" x="296.79" y="88.66" width="0.86" height="0.25"/><rect class="cls-2" x="295.93" y="88.85" width="1.63" height="1.91"/><polygon class="cls-1" points="297.52 90.68 296.21 90.68 296.21 91.02 297.35 91.02 297.52 90.68"/><rect class="cls-2" x="296.09" y="90.9" width="1.28" height="1.21"/><rect class="cls-2" x="296.49" y="92" width="0.75" height="1.21"/><polygon class="cls-1" points="297.13 93.02 296.56 93.02 296.56 93.53 296.99 93.53 297.13 93.02"/><rect class="cls-2" x="296.24" y="93.4" width="0.77" height="0.43"/><rect class="cls-2" x="295.98" y="93.76" width="0.95" height="1.87"/><rect class="cls-2" x="295.8" y="95.39" width="1.03" height="21.5"/><rect class="cls-2" x="295.26" y="104.07" width="2.11" height="0.56"/><rect class="cls-2" x="296.21" y="104.48" width="0.96" height="0.73"/><polygon class="cls-1" points="296.99 105.12 295.05 105.12 295.05 105.71 296.71 105.71 296.99 105.12"/><rect class="cls-2" x="281.39" y="88.03" width="15.29" height="6.18"/><polygon class="cls-1" points="289.03 85.73 289.22 85.92 289.03 86.1 288.85 85.92 289.03 85.73"/><rect class="cls-2" x="257.73" y="116.5" width="62.6" height="7.35"/><path class="cls-1" d="M240.16,118.09a2.65,2.65,0,0,1,0-4.6,2.65,2.65,0,0,1,0,4.6Z"/><ellipse class="cls-2" cx="240.16" cy="112.82" rx="0.28" ry="0.15"/><polygon class="cls-1" points="240.16 112.51 240.31 112.68 240.16 112.85 240 112.68 240.16 112.51"/><ellipse class="cls-2" cx="240.16" cy="113.65" rx="0.36" ry="0.42"/><rect class="cls-2" x="239.99" y="112.91" width="0.34" height="0.63"/><rect class="cls-2" x="238.51" y="115.6" width="3.29" height="0.2"/><rect class="cls-2" x="238.6" y="115.68" width="3.11" height="0.22"/><rect class="cls-2" x="238.71" y="115.78" width="2.9" height="0.39"/><rect class="cls-2" x="238.78" y="115.99" width="2.75" height="4.08"/><rect class="cls-2" x="238.41" y="118.81" width="3.29" height="0.2"/><rect class="cls-2" x="238.51" y="118.89" width="3.1" height="0.22"/><rect class="cls-2" x="238.61" y="118.99" width="2.9" height="0.39"/><rect class="cls-2" x="238.91" y="119.91" width="2.62" height="25.64"/><path class="cls-1" d="M258.94,118.09a2.65,2.65,0,1,0-1.34-2.3A2.55,2.55,0,0,0,258.94,118.09Z"/><ellipse class="cls-2" cx="258.93" cy="112.82" rx="0.28" ry="0.15"/><polygon class="cls-1" points="258.94 112.51 258.78 112.68 258.94 112.85 259.09 112.68 258.94 112.51"/><ellipse class="cls-2" cx="258.94" cy="113.65" rx="0.36" ry="0.42"/><rect class="cls-2" x="258.77" y="112.91" width="0.34" height="0.63"/><rect class="cls-2" x="257.29" y="115.6" width="3.29" height="0.2"/><rect class="cls-2" x="257.38" y="115.68" width="3.1" height="0.22"/><rect class="cls-2" x="257.49" y="115.78" width="2.9" height="0.39"/><rect class="cls-2" x="257.56" y="115.99" width="2.75" height="4.08"/><rect class="cls-2" x="257.38" y="118.81" width="3.29" height="0.2"/><rect class="cls-2" x="257.48" y="118.89" width="3.1" height="0.22"/><rect class="cls-2" x="257.58" y="118.99" width="2.9" height="0.39"/><rect class="cls-2" x="241.06" y="117.83" width="16.97" height="5.86"/><polygon class="cls-1" points="249.55 109.2 253.27 112.88 256.99 116.56 249.55 116.56 242.1 116.56 245.82 112.88 249.55 109.2"/><rect class="cls-2" x="242.37" y="116.48" width="14.36" height="2.85"/><rect class="cls-2" x="249" y="108.88" width="1.09" height="1.53"/><path class="cls-2" d="M249,108.13h1.05a.3.3,0,0,1,.3.3v.1a.29.29,0,0,1-.29.29H249a.3.3,0,0,1-.3-.3v-.1A.29.29,0,0,1,249,108.13Z"/><rect class="cls-2" x="248.79" y="108.66" width="1.51" height="0.28"/><path class="cls-1" d="M337.91,118.09a2.65,2.65,0,1,0-1.34-2.3A2.55,2.55,0,0,0,337.91,118.09Z"/><ellipse class="cls-2" cx="337.91" cy="112.82" rx="0.28" ry="0.15"/><polygon class="cls-1" points="337.91 112.51 337.75 112.68 337.91 112.85 338.06 112.68 337.91 112.51"/><ellipse class="cls-2" cx="337.91" cy="113.65" rx="0.36" ry="0.42"/><rect class="cls-2" x="337.74" y="112.91" width="0.34" height="0.63"/><rect class="cls-2" x="336.26" y="115.6" width="3.29" height="0.2"/><rect class="cls-2" x="336.35" y="115.68" width="3.11" height="0.22"/><rect class="cls-2" x="336.46" y="115.78" width="2.9" height="0.39"/><rect class="cls-2" x="336.53" y="115.99" width="2.75" height="4.08"/><rect class="cls-2" x="336.36" y="118.81" width="3.29" height="0.2"/><rect class="cls-2" x="336.45" y="118.89" width="3.11" height="0.22"/><rect class="cls-2" x="336.56" y="118.99" width="2.9" height="0.39"/><rect class="cls-2" x="336.53" y="119.91" width="2.62" height="25.64"/><path class="cls-1" d="M319.13,118.09a2.65,2.65,0,1,1,1.34-2.3A2.55,2.55,0,0,1,319.13,118.09Z"/><ellipse class="cls-2" cx="319.13" cy="112.82" rx="0.28" ry="0.15"/><polygon class="cls-1" points="319.13 112.51 319.28 112.68 319.13 112.85 318.98 112.68 319.13 112.51"/><ellipse class="cls-2" cx="319.13" cy="113.65" rx="0.36" ry="0.42"/><rect class="cls-2" x="318.96" y="112.91" width="0.34" height="0.63"/><rect class="cls-2" x="317.48" y="115.6" width="3.29" height="0.2"/><rect class="cls-2" x="317.58" y="115.68" width="3.1" height="0.22"/><rect class="cls-2" x="317.68" y="115.78" width="2.9" height="0.39"/><rect class="cls-2" x="317.76" y="115.99" width="2.75" height="4.08"/><rect class="cls-2" x="317.39" y="118.81" width="3.29" height="0.2"/><rect class="cls-2" x="317.48" y="118.89" width="3.11" height="0.22"/><rect class="cls-2" x="317.58" y="118.99" width="2.9" height="0.39"/><rect class="cls-2" x="320.04" y="117.83" width="16.97" height="5.86"/><polygon class="cls-1" points="328.52 109.2 324.8 112.88 321.07 116.56 328.52 116.56 335.97 116.56 332.25 112.88 328.52 109.2"/><rect class="cls-2" x="321.34" y="116.48" width="14.35" height="2.85"/><rect class="cls-2" x="327.98" y="108.88" width="1.09" height="1.53"/><path class="cls-1" d="M329,108.13h-1a.3.3,0,0,0-.3.29v.1a.3.3,0,0,0,.3.29h1a.3.3,0,0,0,.3-.29v-.1A.3.3,0,0,0,329,108.13Z"/><rect class="cls-2" x="327.77" y="108.66" width="1.51" height="0.28"/><rect class="cls-2" x="240.69" y="123.28" width="96.69" height="22.27"/><path class="cls-1" d="M19.2,96.85a107.15,107.15,0,0,1,36.29,10.9v37.61H19.2Z"/><path class="cls-1" d="M71.42,104c-12.26-1.06-16.84,3.22-20.12,9.28v32H71.42Z"/><rect class="cls-2" x="35.13" y="91.47" width="6.83" height="14.85"/><rect class="cls-2" x="88.17" y="113.9" width="19.26" height="31.56"/><rect class="cls-2" x="104.38" y="126.3" width="7.44" height="19.16"/><rect class="cls-2" x="73.1" y="120.77" width="18.78" height="24.5"/><rect class="cls-2" x="89.41" y="111.33" width="9.44" height="3.53"/><rect class="cls-2" x="100.28" y="113.14" width="1.91" height="1.24"/><rect class="cls-2" x="103.9" y="113.33" width="1.72" height="1.72"/><rect class="cls-2" x="219.59" y="129.4" width="17.04" height="17.44"/><rect class="cls-2" x="233.07" y="137.13" width="9.71" height="8.12"/><rect class="cls-2" x="475.16" y="134.08" width="11.61" height="13.56"/><rect class="cls-2" x="482.99" y="138.91" width="11.47" height="7.82"/><rect class="cls-2" x="414.86" y="135.49" width="17.04" height="13.29"/><rect class="cls-2" x="406.29" y="138.79" width="13.38" height="10.95"/><rect class="cls-2" x="417.53" y="129.38" width="10.95" height="8.92"/><rect class="cls-2" x="335.23" y="135.68" width="13.09" height="12.8"/><rect class="cls-2" x="217.55" y="134.65" width="3.81" height="14.85"/><rect class="cls-2" x="220.41" y="127.79" width="8.32" height="2.76"/><polygon class="cls-1" points="223.05 127.1 225.95 127.1 227.29 128.42 221.82 128.42 223.05 127.1"/><rect class="cls-2" x="225.38" y="126.74" width="1.65" height="1.71"/><rect class="cls-2" x="228.64" y="129.02" width="5" height="1.44"/><rect class="cls-2" x="236.03" y="130.16" width="0.99" height="1.02"/><rect class="cls-2" x="236.03" y="132.2" width="0.99" height="1.02"/><rect class="cls-2" x="236.03" y="134.23" width="0.99" height="1.02"/><rect class="cls-2" x="236.03" y="136.27" width="0.99" height="1.02"/><rect class="cls-2" x="219.19" y="130.16" width="0.99" height="1.02"/><rect class="cls-2" x="219.19" y="132.2" width="0.99" height="1.02"/><rect class="cls-2" x="219.19" y="134.23" width="0.99" height="1.02"/><rect class="cls-2" x="219.19" y="136.27" width="0.99" height="1.02"/><rect class="cls-2" x="106.67" y="139.51" width="12.02" height="8.18"/><rect class="cls-2" x="67.6" y="136.51" width="6.01" height="8.85"/><rect class="cls-2" x="13.79" y="135.69" width="8.93" height="10.74"/><rect class="cls-2" x="499.52" y="1.86" width="2.34" height="0.61"/><rect class="cls-2" x="500.09" y="0.49" width="0.15" height="1.9"/><rect class="cls-2" x="500.52" y="0.99" width="0.23" height="1.41"/><rect class="cls-2" x="501" width="0.22" height="2.39"/><rect class="cls-2" x="501.61" y="0.34" width="0.15" height="2.05"/><rect class="cls-2" x="500.2" y="3.09" width="0.96" height="0.23"/><rect class="cls-2" x="500.2" y="4.79" width="0.96" height="0.23"/><rect class="cls-2" x="500.2" y="3.94" width="0.96" height="0.23"/><rect class="cls-2" x="500.2" y="5.65" width="0.96" height="0.23"/><rect class="cls-2" x="500.2" y="6.5" width="0.96" height="0.23"/><rect class="cls-2" x="500.71" y="2.34" width="0.15" height="5.01"/><rect class="cls-2" x="498" y="1.85" width="0.28" height="5.59"/><rect class="cls-2" x="497.43" y="6.93" width="1.58" height="0.65"/><rect class="cls-2" x="512.83" y="7" width="2.27" height="0.89"/><rect class="cls-2" x="514.48" y="5.81" width="0.23" height="1.42"/><rect class="cls-2" x="499.58" y="0.1" width="0.15" height="2.29"/><rect class="cls-2" x="341.92" y="130.95" width="28.69" height="15.26"/><rect class="cls-2" x="364.09" y="136.69" width="24.52" height="10.56"/><rect class="cls-2" x="384.17" y="134.86" width="2.48" height="4.17"/><rect class="cls-2" x="391.73" y="133.3" width="15.52" height="13.43"/><rect class="cls-2" x="392.04" y="128.96" width="5.99" height="7.14"/><rect class="cls-2" x="392.82" y="127.31" width="0.32" height="2.38"/><rect class="cls-2" x="394.19" y="128.23" width="3.29" height="1.65"/><rect class="cls-2" x="372.3" y="135.65" width="6.77" height="2.1"/><rect class="cls-2" x="374.68" y="135.1" width="3.61" height="1.56"/><rect class="cls-2" x="355.25" y="129.33" width="12.52" height="4.44"/><rect class="cls-2" x="343.05" y="126.31" width="7.59" height="8.1"/><rect class="cls-2" x="342.78" y="125.76" width="8.04" height="0.92"/><polygon class="cls-1" points="343.29 124.97 345.74 125.38 345.74 125.89 343.29 125.89 343.29 124.97"/><polygon class="cls-1" points="350.08 129.92 351.89 129.92 353.55 131.4 350.08 131.4 350.08 129.92"/><rect class="cls-2" x="341.51" y="131.91" width="1.53" height="0.51"/><rect class="cls-2" x="341.51" y="133.25" width="1.53" height="0.51"/><rect class="cls-2" x="341.51" y="134.59" width="1.53" height="0.51"/></svg>