<svg id="Layer_1" data-name="Layer 1" xmlns="http://www.w3.org/2000/svg" viewBox="0 0 341.66 199.41"><defs><style>.cls-1{fill:#fff;}.cls-2{fill:#fafdfa;}</style></defs><title>Artboard 1</title><path class="cls-1" d="M238.53,192.93a31.07,31.07,0,0,1-7.39-1.9c-1-.34-1-.75-.47-1.53a22,22,0,0,0,2.83-7.58c1.69-8.59,2.44-17.36,5.23-25.73.19-.58.09-.88-.61-.92a13,13,0,0,0-10,3.13c-.61.55-1,.48-1.43-.15a5,5,0,0,0-1.55-1.31c-4.82-3.06-12.55-1.93-16.52,2.37-3.28,3.56-4.25,7.91-4,12.52a8.44,8.44,0,0,0,4.28,7.45,11.75,11.75,0,0,0,8.13,1.08,23.48,23.48,0,0,0,5.33-1.95c-.39,2.19-.78,4.14-1.06,6.1-.17,1.19-.67,1.11-1.55.69a21.16,21.16,0,0,0-15-1.33c-4.3,1.16-6.75,5-5.68,9,.75,2.78,2.91,4.16,5.37,5.23a27.29,27.29,0,0,0,4.93,1.34h5.28a2.39,2.39,0,0,1,.54-.2,20.73,20.73,0,0,0,11.43-4.73,1.4,1.4,0,0,1,1.45-.23,18.21,18.21,0,0,0,6.85.82,6.86,6.86,0,0,0,3.92-1.27c.2-.16.52-.33.39-.66S238.75,193,238.53,192.93Zm-20.95-1.38a7.18,7.18,0,0,1-5,1.41,7.68,7.68,0,0,1-3.65-.56c-.78-.37-1.49-.82-1.35-1.87s.83-1.4,1.67-1.64c2-.58,3.94,0,5.86.42a14.22,14.22,0,0,1,2.33.91C218.21,190.55,218.35,190.95,217.58,191.55Zm5.86-25.67a17.3,17.3,0,0,1-1.23,5.44,3,3,0,0,1-1.38,1.59c-2,1-3.59.11-3.57-2.1a16,16,0,0,1,1.43-6.71,2.58,2.58,0,0,1,3.28-1.43c1.29.29,1.49,1.28,1.48,2.38C223.44,165.22,223.44,165.38,223.44,165.88Z"/><path class="cls-1" d="M36.51,118.55c3.5-4.9,1.81-10.53-3.82-12.64a16.4,16.4,0,0,0-4.78-1.07c-7-.43-14-.08-21-.2-.51,0-.8.13-.94.67-.4,1.55-.83,3.08-1.3,4.61-.18.56-.1.75.51.85,1.94.32,2.28.82,1.95,2.72q-1.74,9.9-3.5,19.8c-.43,2.42-1.12,3-3.65,3v1.2a11.27,11.27,0,0,1,.54,3.39c.08,1.12.44,1.56,1.66,1.47,2-.13,3.92,0,5.88,0,5.51-.11,11,.35,16.54-.28,3.79-.43,7.34-1.59,10.14-4.38,3.86-3.85,4.08-10.26.51-13.85a14.29,14.29,0,0,0-2.67-1.8A11.7,11.7,0,0,0,36.51,118.55Zm-12.08,13.8a5,5,0,0,1-4.59,2.92c-.44,0-.88,0-1.32,0-2.07,0-2.08,0-1.73-2.07.31-1.89.67-3.77,1-5.66.12-.72.37-1.16,1.22-1.06.63.08,1.28,0,1.92,0C24.42,126.6,26,129.15,24.43,132.35Zm-1.56-13.52c-.62.12-1.26.14-1.89.2v0a2.49,2.49,0,0,0-.48,0c-1.09.22-1.24-.29-1-1.22.35-1.67.64-3.36.92-5,.07-.38.09-.71.6-.68a13.84,13.84,0,0,1,3.44.21,2.33,2.33,0,0,1,1.77,2.27A3.91,3.91,0,0,1,22.87,118.83Z"/><path class="cls-1" d="M330.77,132.2c4.79-8,8.58-16.49,10.2-25.79a41.63,41.63,0,0,0-.37-17c-2.54-10.61-9-18.45-17.68-24.62-.86-.61-1.82-1.09-2.23-2.23a48.91,48.91,0,0,0-10.19-16.64,56.27,56.27,0,0,0-20.2-14,62.89,62.89,0,0,0-16.12-4.37,7.77,7.77,0,0,1-4.6-1.65A78.9,78.9,0,0,0,256.85,17,125.14,125.14,0,0,0,221.18,3.11,129,129,0,0,0,201.44.24,112.79,112.79,0,0,0,184.55.4a111.57,111.57,0,0,0-18.48,3.14,114.21,114.21,0,0,0-27.17,10.83,124.41,124.41,0,0,0-21.35,15,125.66,125.66,0,0,0-14.88,15.25,27,27,0,0,0-3.87,5.53c1.94-1.72,3.63-3.67,5.52-5.42a119,119,0,0,1,20.14-15A129.88,129.88,0,0,1,170.1,13.1a120.19,120.19,0,0,1,14.14-1.55,113,113,0,0,1,16.63.64A118.74,118.74,0,0,1,245.3,26.27a100,100,0,0,1,19.84,14.36,76.47,76.47,0,0,1,12.11,14.48,62.69,62.69,0,0,1,6.85,14.2,58.91,58.91,0,0,1,2.74,24.09A66.83,66.83,0,0,1,284,107.57a89.62,89.62,0,0,1-11,22.64c-.83,1.24-1.63,2.49-2.61,4a5.47,5.47,0,0,0,1.72-1.71c7.92-9.51,14.61-19.77,19.06-31.38a66.49,66.49,0,0,0,4.64-28.83A58.59,58.59,0,0,0,290,50.91c-1.17-2.43-2.58-4.75-3.88-7.12.36-.25.65,0,.93.09a46.42,46.42,0,0,1,16.76,10.37A40.56,40.56,0,0,1,315.35,76.9a60.61,60.61,0,0,1-.59,22,110,110,0,0,1-8.68,25.66c-1.52,3.24-3.18,6.4-4.74,9.63A101.58,101.58,0,0,0,312.42,119c6.84-11.48,11.38-23.7,11.64-37.43a22.79,22.79,0,0,1,4.33,4.94c4.67,6.75,5.68,14.31,4.62,22.21-1.23,9.13-4.75,17.51-9,25.61a186.35,186.35,0,0,1-11.33,18.45c-2,2.9-4.26,5.59-6.18,8.52a21.8,21.8,0,0,0-3.08,14.83c.44,3.78,2.33,6.71,6.26,7.81a12.87,12.87,0,0,0,10.65-1.79c1.16-.73,1.75-1.2,3,.12,2.75,2.87,8.84,2.52,12.25,1a.91.91,0,0,0,.55-.72c.29-1.45.52-2.9.84-4.34.13-.58,0-.66-.57-.67-2.19-.06-2.89-.89-2.54-3.11.39-2.52.86-5,1.3-7.54a61.37,61.37,0,0,1,2.64-10.79c.2-.54.16-.87-.58-.93a12.64,12.64,0,0,0-10.08,3.21c-.59.54-.94.72-1.6,0a9.75,9.75,0,0,0-9.07-3.21c-1,.12-1.93.32-3.07.5.44-.56.75-1,1.11-1.43A153.4,153.4,0,0,0,330.77,132.2Zm-14.92,41.33a27.53,27.53,0,0,1,1.61-8.51c.46-1.27,1.1-2.42,2.76-2.39a1.89,1.89,0,0,1,2.12,1.92,24.56,24.56,0,0,1-2.05,10.82,2.51,2.51,0,0,1-2.5,1.52,1.77,1.77,0,0,1-1.93-1.69A15.23,15.23,0,0,1,315.85,173.53Z"/><path class="cls-1" d="M115.19,123c.17-1,.51-1.39,1.58-1.32,1.59.11,3.19,0,4.89,0-.2.55-.38,1-.55,1.51A23.67,23.67,0,0,0,119.77,135c.68,4.26,3.53,7.27,7.35,7.79a13.89,13.89,0,0,0,10.6-2.8c.52-.39.72-.46,1.15.1a6.88,6.88,0,0,0,3.9,2.42,15,15,0,0,0,7.81-.18c1.28-.35,2.1-.9,2.15-2.38a19.11,19.11,0,0,1,.6-3c.11-.53.13-.85-.66-.82-1.9.09-2.65-.7-2.5-2.58a35.89,35.89,0,0,1,.55-3.55c.94-5.18,1.62-10.42,3.45-15.39.3-.83,0-.79-.64-.85a12.83,12.83,0,0,0-10.44,3.54c-.37.35-.58.39-.93-.05-2.36-3-5.54-3.82-9.18-3.56-1.52.11-2.95.7-4.49.68-3.12,0-6.24,0-9.36,0-2.39,0-2.41,0-2-2.4a15.1,15.1,0,0,1,1-4.05,3.18,3.18,0,0,1,3-1.77c1.07,0,2.13,0,2.41,1.4.09.43.41.29.67.26.67-.08,1.34-.2,2-.28.48-.05.57-.37.59-.76.11-2.52.22-5,.34-7.55,0-.48-.1-.74-.64-.75-3.67-.08-7.34-.47-11,.2-5.81,1.06-9.39,4.49-10.57,10.27-.31,1.53-.6,3.06-.79,4.6-.09.7-.39.83-1,.82-2.56,0-5.12,0-7.68,0-.66,0-.85-.21-.72-.83.36-1.8.62-3.62,1.06-5.4a2.45,2.45,0,0,1,2.74-2c.58.06,1.18.21,1.26.89.1.88.62.87,1.26.75a12.33,12.33,0,0,1,1.42-.23c.51,0,.66-.27.69-.76q.17-3.77.39-7.55c0-.59-.2-.74-.75-.78a40.13,40.13,0,0,0-9.44.22c-5.67,1-9.44,4.58-10.53,10.19-.3,1.53-.58,3.06-.77,4.6-.09.74-.38.92-1.07.89-1.12-.05-2.24,0-3.36,0-.52,0-.79.13-.88.7-.31,2-.65,4-1,6-.12.6.08.69.58.68,1.08,0,2.16,0,3.24,0,.79,0,1.09.05.91,1-1.24,6.67-2.4,13.36-3.59,20a15.9,15.9,0,0,1-1.84,6,3.44,3.44,0,0,1-3.53,1.76,1.43,1.43,0,0,1-1.37-1.84,20.76,20.76,0,0,1,.56-2H66.37c-.33,0-.62,0-.81.36-1.94,3.49-2,7.71,2.93,8.91a15.56,15.56,0,0,0,16.39-5.85c3-4,4.47-8.7,5.62-13.49,1.07-4.46,1.78-9,2.58-13.52.17-1,.42-1.5,1.6-1.44,2.35.12,4.72.06,7.08,0,.81,0,1,.16.85,1-1,5.69-2,11.4-3.06,17.09a53.68,53.68,0,0,1-1.63,7.72,5,5,0,0,1-1.64,2.59,2.12,2.12,0,0,1-2.37.28c-.75-.41-.66-1.16-.64-1.9s.85-1.25.31-1.69-1.23-.08-1.87-.09h-.24c-2.58,0-2.71.11-3.38,2.62-1,3.78.81,6.44,4.77,6.93,6.28.78,11.19-1.49,14.7-6.74,3-4.47,4.36-9.56,5.44-14.73C113.83,130.84,114.52,126.9,115.19,123Zm17.67,3.77a14.22,14.22,0,0,1,1.31-4.08,2.65,2.65,0,0,1,1.62-1.5,2.09,2.09,0,0,1,2.9,1.93,8.57,8.57,0,0,1,0,1.2A30.51,30.51,0,0,1,137,133c-.48,1.23-1.19,2.27-2.72,2.33-1.29,0-1.85-.35-2.05-1.64C131.84,131.35,132.41,129,132.86,126.74Z"/><path class="cls-1" d="M83.3,90.53q3.08-4.72,6.6-9.13c9-11.35,19.33-21.3,31.9-28.71A68.32,68.32,0,0,1,151.22,43c11.55-.94,22.46,1.63,33,6.25,6.14,2.7,11.41,6.72,16.43,11.08a34.08,34.08,0,0,0,16.4,8.2,77.82,77.82,0,0,0,13.25,1.07,42.42,42.42,0,0,1,17.35,3.55c8.95,4.06,13.74,11,14.27,20.82.48,9-2.13,17.27-6.47,25.05-5.17,9.28-12.05,17.18-19.84,24.33-2.67,2.45-5.49,4.73-8.5,7.1a3.24,3.24,0,0,0,1.68-.68c12.28-6.85,23-15.48,30.65-27.48,6.78-10.65,10.36-22.16,7.9-34.86-2.21-11.4-8.7-19.53-19.64-23.85a39.28,39.28,0,0,0-15.77-2.36,30.57,30.57,0,0,1-19.69-6.3c-2-1.51-4-3-6-4.59-5.81-4.65-12-8.61-19.12-11a86.93,86.93,0,0,0-38.92-3.63,73.13,73.13,0,0,0-39.09,17.55A95.87,95.87,0,0,0,84.44,86.51a23.89,23.89,0,0,0-1.85,4.83A3.52,3.52,0,0,0,83.3,90.53Z"/><path class="cls-1" d="M176.67,139.86a4.16,4.16,0,0,0,1.14.86c3,1.92,6.4,2.34,9.88,2.27,9.45-.21,15.92-6.09,16.92-15.41.59-5.49-1.73-10.06-6.35-12.36a16.06,16.06,0,0,0-7.68-1.55,28.39,28.39,0,0,0-3.7.28c-11.59,1.87-15.38,12-13.81,20,.19,1,0,1.3-.81,1.57-.3.1-.59.24-.89.35-2.56.95-4-.23-3.57-2.94,1.11-6.45,2.29-12.88,3.4-19.33a92.54,92.54,0,0,0,1.69-10.87,9.3,9.3,0,0,0-.65-4.46c-.2-.43-.37-.82-1-.72-3.95.59-7.9,1.12-11.86,1.66a1,1,0,0,0-1,.86c-.3,1.24-.68,2.46-1.05,3.68-.16.52-.25.86.52,1a1.79,1.79,0,0,1,1.57,2,12.56,12.56,0,0,1-.1,2.39c-.72,4.17-1.49,8.33-2.22,12.49s-1.52,8.16-2.11,12.26c-.72,5,1.83,8.31,6.79,9a17.23,17.23,0,0,0,12.37-3.09C175.11,139.08,175.84,138.76,176.67,139.86Zm8.52-7.85a29.11,29.11,0,0,1,1.55-7.88c.73-2,1.8-2.8,3.44-2.78A1.7,1.7,0,0,1,192,123c.36,2.35-.23,4.6-.66,6.87a20.74,20.74,0,0,1-.86,2.86,4.35,4.35,0,0,1-1.23,1.89,2.84,2.84,0,0,1-3,.57c-1-.37-1-1.32-1.1-2.21C185.17,132.57,185.19,132.21,185.19,132Z"/><path class="cls-1" d="M203.34,182.65c.21-1.38.5-2.74.81-4.1.15-.65-.09-.72-.66-.73-2,0-2.8-1-2.46-3,1.06-6.28,1.86-12.63,4-18.68.19-.53.08-.67-.48-.72a12.63,12.63,0,0,0-10.38,3.32c-.62.59-.89.46-1.36-.14a6.66,6.66,0,0,0-1.56-1.47c-5.85-3.88-14.09-1.39-17.59,4.33a24,24,0,0,0-3.23,14c.08,1.71.11,1.71-1.63,2.15A2.09,2.09,0,0,1,166,176a5.17,5.17,0,0,1,.19-2.47c.91-4,2.14-7.93,2.63-12a11.23,11.23,0,0,0-.44-5.44,1.26,1.26,0,0,0-1.52-1c-3.78.58-7.57,1.1-11.35,1.65-.43.06-.85.1-1,.67-.36,1.35-.78,2.68-1.17,4-.09.31-.16.58.27.78,1.79.84,2.1,1.58,1.83,3.53-.31,2.22-1,4.34-1.55,6.51-.61,2.55-1.07,5.16-.08,7.67,1.36,3.44,4.4,4.41,7.74,4.63a15.64,15.64,0,0,0,9.87-2.71c.73-.48,1.12-.43,1.68.22a7.08,7.08,0,0,0,4,2.26,13.47,13.47,0,0,0,11.11-2.36c.43-.31.81-.84,1.4-.16,2,2.29,4.59,2.88,7.8,2.83a11.85,11.85,0,0,0,4.93-.9C202.87,183.5,203.24,183.29,203.34,182.65Zm-15.87-7.15a3.22,3.22,0,0,1-.89,1.11,2.12,2.12,0,0,1-3.6-1.27c-.08-.47-.08-1-.12-1.53a36.53,36.53,0,0,1,1.65-8.31,8,8,0,0,1,.76-1.49,2.34,2.34,0,0,1,2.76-1.13,2,2,0,0,1,1.52,2.17A25.93,25.93,0,0,1,187.46,175.5Z"/><path class="cls-1" d="M155.08,151.38c-.18-1.5-.37-3-.52-4.52-.07-.7-.54-.69-1-.69-4.2,0-8.4,0-12.6,0a.94.94,0,0,0-1.07.84c-.33,1.35-.7,2.71-1.16,4-.31.88-.11,1.19.8,1.33,1.4.21,1.79.8,1.58,2.14-.6,3.84-1.44,7.64-1.78,11.55a74,74,0,0,0-4.94-10.48q-2.24-4.3-4.45-8.62c-.23-.44-.44-.78-1.05-.78q-6.24,0-12.48,0a1,1,0,0,0-1.06.87c-.35,1.39-.69,2.79-1.15,4.15-.26.76,0,1,.66,1.12,1.75.38,2,.83,1.71,2.59-.38,2.16-.77,4.32-1.14,6.48-.79,4.55-1.57,9.11-2.38,13.65-.35,2-.85,2.45-2.88,2.75-.6.09-.75.34-.68.86.2,1.5.42,3,.6,4.51.07.57.38.69.89.68q6.42,0,12.84,0a.88.88,0,0,0,1-.77c.37-1.43.78-2.85,1.17-4.27.16-.59.1-.94-.68-1-1.48-.16-1.76-.55-1.69-2a13.91,13.91,0,0,1,.18-1.54c.64-4.05,1.54-8.07,1.84-12.54.63,1.64,1,3,1.65,4.22,2.94,5.76,5.95,11.48,8.91,17.23a1.06,1.06,0,0,0,1.08.71c2.84,0,5.68,0,8.52,0,.57,0,.82-.14.93-.77.43-2.71.95-5.41,1.43-8.12,1.2-6.79,2.4-13.58,3.62-20.36a2.33,2.33,0,0,1,2.52-2.22C154.94,152.3,155.15,152,155.08,151.38Z"/><path class="cls-1" d="M74.41,140.86a1.7,1.7,0,0,0,.86-1.22c.24-1.44.5-2.88.76-4.38-.82.3-1.54.62-2.3.82-1.91.49-3.08-.42-3-2.4a38.1,38.1,0,0,1,.63-4.14q1.33-7.6,2.7-15.2c.1-.54.11-.92-.67-.8-3.67.56-7.34,1.08-11,1.6-.52.07-.86.15-1,.8-.77,4.52-1.71,9-2.33,13.56a4,4,0,0,1-2.54,3.38c-.95.44-2,1-2.93.2s-.41-1.71-.22-2.58c.76-3.51,2-6.92,2.38-10.5a10.93,10.93,0,0,0-.5-5.66,1.13,1.13,0,0,0-1.37-.81c-3.87.58-7.74,1.12-11.61,1.67-.43.06-.72.16-.85.66-.36,1.39-.78,2.76-1.2,4.13-.11.38-.08.54.35.68,1.55.51,1.87,1,1.83,2.59a20.72,20.72,0,0,1-.8,4.47c-.78,3.09-1.89,6.11-1.79,9.37.1,2.94,1.65,5,4.26,5.65a11.65,11.65,0,0,0,4.17.14A19.63,19.63,0,0,0,58.46,138a6.37,6.37,0,0,0,3.91,4.15A13.18,13.18,0,0,0,74.41,140.86Z"/><path class="cls-1" d="M271.75,155.26a12.86,12.86,0,0,0-10.11,3.47c-.58.54-.86.43-1.26-.17a6.43,6.43,0,0,0-2.16-1.87c-5.11-3-12.71-1.36-16.3,3.68a21.89,21.89,0,0,0-3.76,16.16c.69,5.09,4.31,8,9.45,8a14.23,14.23,0,0,0,8.48-2.87c.31-.23.63-.73,1.08-.13,1.89,2.49,4.64,2.87,7.48,3a14.76,14.76,0,0,0,5.28-1c.37-.13.79-.25.89-.71.3-1.52.6-3,.88-4.58.06-.31.07-.57-.47-.58-2.29,0-3-.83-2.61-3.14,1.11-6.11,1.73-12.33,3.91-18.21C272.81,155.58,272.61,155.32,271.75,155.26ZM255,175.49a2.82,2.82,0,0,1-2.41,1.56,1.75,1.75,0,0,1-2-1.62,15.71,15.71,0,0,1,0-1.91,27.69,27.69,0,0,1,1.59-8.4c.42-1.2,1-2.41,2.59-2.44,1.43,0,2.26.57,2.3,2A25.1,25.1,0,0,1,255,175.49Z"/><path class="cls-1" d="M300.55,155.5a11.53,11.53,0,0,0-6.51,1.14,18,18,0,0,0-3.78,2.41,17.21,17.21,0,0,0-.72-3.17,1.19,1.19,0,0,0-1.48-.84c-3.47.51-6.94,1-10.42,1.46A1.69,1.69,0,0,0,276,158a29.63,29.63,0,0,1-.85,3c-.2.62-.1,1,.6,1.11a1.77,1.77,0,0,1,1.47,2,13.93,13.93,0,0,1-.09,2.15q-.78,4.72-1.64,9.42a2.19,2.19,0,0,1-2,2.07c-.81.06-.89.43-.78,1.09q.35,2,.64,4c.09.64.32,1,1.06,1,4.32,0,8.64,0,13,0,.57,0,.9-.16,1-.72.39-1.51.8-3,1.2-4.51.1-.37.12-.65-.39-.81-1.42-.43-1.63-.79-1.4-2.21q.7-4.31,1.43-8.61a3.08,3.08,0,0,1,3-2.59c1.33-.08,1.78.48,1.58,1.82-.15,1-.87,1.86-1.18,3,1.8,0,3.51,0,5.22,0a2.43,2.43,0,0,0,1.82-.7,13.93,13.93,0,0,0,4.53-7.56A4.37,4.37,0,0,0,300.55,155.5Z"/><path class="cls-1" d="M247.29,86.14c.1-.84-1-1-1.68-1.21a15.26,15.26,0,0,0-19.11,10c-.82,2.4-.29,3.52,2.08,4.44a5.47,5.47,0,0,0,2,.49c1.65,0,2-.24,2.35-2,1.48-6.56,6.55-11.08,12.56-11.27C246.15,86.55,247.2,86.94,247.29,86.14Z"/><path class="cls-1" d="M235.08,106.76a10.76,10.76,0,0,0-1.37.14c-.33.07-.83,0-.91.4s.37.49.62.66a5.54,5.54,0,0,1,2.29,3.25c.21.73.44,1.45.68,2.17a2.89,2.89,0,0,0,2.58,2,7.12,7.12,0,0,0,3.75-.55c2-.89,2.4-2.27.92-3.93A12.33,12.33,0,0,0,235.08,106.76Z"/><path class="cls-1" d="M158.66,150.49a3.23,3.23,0,0,0,3.46,3.33,5,5,0,0,0,4.91-4.76,3.35,3.35,0,0,0-3.53-3.41A5,5,0,0,0,158.66,150.49Z"/><path class="cls-1" d="M43.23,107.71c.58,0,1.11,0,1.32-.74.5-1.63.94-3.29,1.58-4.86.49-1.21.41-2.7,1.7-3.58.49-.33.16-1.13-.46-1.17a14.18,14.18,0,0,0-2.14,0c-.81.06-1.06.65-.57,1.32.16.22.44.33.33.69-.53,1.73-1,3.46-1.57,5.19l-.32,0c-.51-1.78-1-3.55-1.53-5.33-.07-.27.2-.39.34-.58.5-.67.26-1.22-.56-1.27s-1.52,0-2.28,0c-.32,0-.65,0-.7.43s-.24.71.21.94.69.81.86,1.35c.74,2.27,1.54,4.52,2.3,6.78C42,107.62,42.52,107.75,43.23,107.71Z"/><path class="cls-1" d="M56.32,103.06c.61.28,1.29.4,1.93.62a1.17,1.17,0,0,1,.83,1.4A1.14,1.14,0,0,1,58,106.17a2.17,2.17,0,0,1-2.44-1c-.17-.31-.36-.71-.81-.37a1.65,1.65,0,0,0,.29,2.57,6.59,6.59,0,0,0,2.45.47,3.31,3.31,0,1,0,.91-6.55,5.88,5.88,0,0,1-1.23-.41,1.16,1.16,0,0,1,.31-2.23,1.9,1.9,0,0,1,2.08.83c.28.4.72,1,1-.06l-.08-1.71h0A7.07,7.07,0,0,0,58.07,97a3.42,3.42,0,0,0-3.77,2.43A3.09,3.09,0,0,0,56.32,103.06Z"/><path class="cls-1" d="M68.46,98.94c1,0,1.09.65,1.07,1.46,0,1.4,0,2.8,0,4.2,0,1.25.23,2.44,1.52,3a3.09,3.09,0,0,0,3.55-.61c.06-.76-.09-1.17-1-1-.57.13-1.41.34-1.56-.7a20.91,20.91,0,0,1-.23-4.66c0-1.64,0-1.64,1.65-1.62.56,0,1.13.11,1.22-.74s-.49-1-1.18-1c-1.72-.07-1.72-.09-1.7-1.77,0-.08,0-.16,0-.24,0-.56.22-1.22-.78-1.26s-.87.48-.95,1.12c-.13,1-.23,2.13-1.65,2.24-.52,0-.46.46-.49.81S68,98.93,68.46,98.94Z"/><path class="cls-1" d="M49.05,106.26a.78.78,0,0,0,.59,1.32c.36,0,.72,0,1.07,0v0a6.73,6.73,0,0,0,1.31,0c.69-.14,1-.84.51-1.18-.84-.57-.67-1.27-.68-2,0-1.23,0-2.47,0-3.71,0-.88-.22-1.79.51-2.6.39-.43-.15-1.06-.77-1s-1.17.22-1.75.33c-1,.19-1,.54-.68,1.54A17.7,17.7,0,0,1,49.3,106C49.29,106.11,49.12,106.17,49.05,106.26Z"/><path class="cls-1" d="M63.73,107.55c.32,0,.64,0,1,0a2.42,2.42,0,0,0,.67.08c.44-.07,1,.11,1.24-.47a.92.92,0,0,0-.39-1.23c-.3-.2-.3-.62-.31-1,0-.84-.13-1.67-.08-2.51.09-1.52-.39-3.1.61-4.53.24-.34,0-.91-.64-.82a11.85,11.85,0,0,0-2.22.46c-.67.23-1.15.66-.4,1.39a1.7,1.7,0,0,1,.41,1.33c0,1.24,0,2.47,0,3.71a2.81,2.81,0,0,1-.62,2.32C62.49,106.77,63,107.49,63.73,107.55Z"/><path class="cls-1" d="M64.69,96a1.17,1.17,0,0,0,1.42-1.22,1.18,1.18,0,0,0-1.22-1.32,1.22,1.22,0,0,0-1.49,1.17C63.34,95.51,63.87,96,64.69,96Z"/><path class="cls-1" d="M51.08,96.06c.52,0,.91-.5.94-1.24a1.2,1.2,0,0,0-1.28-1.38,1.22,1.22,0,0,0-1.34,1.33C49.37,95.7,49.92,96,51.08,96.06Z"/><path class="cls-1" d="M73.68,105.8c1.11,0,1.14,0,.93,1.18.53-1.21.34-1.51-.88-1.41a2.67,2.67,0,0,1-1.72-.25C72.4,106.06,73.1,105.78,73.68,105.8Z"/><path class="cls-1" d="M73.57,106c1-.21,1.1.2,1,1,.21-1.15.18-1.16-.93-1.18-.58,0-1.28.26-1.67-.47C72.16,106.36,73,106.15,73.57,106Z"/><path class="cls-1" d="M60.53,99.38c.64-1.15.64-1.31-.08-1.71h0C60.93,98.22,60.61,98.81,60.53,99.38Z"/><path class="cls-1" d="M60.45,97.67l.08,1.71C60.61,98.81,60.93,98.22,60.45,97.67Z"/><path class="cls-2" d="M217.43,190.21a14.22,14.22,0,0,0-2.33-.91c-1.92-.46-3.86-1-5.86-.42-.84.25-1.54.66-1.67,1.64s.57,1.5,1.35,1.87a7.68,7.68,0,0,0,3.65.56,7.18,7.18,0,0,0,5-1.41C218.35,190.95,218.21,190.55,217.43,190.21Z"/></svg>